<?xml version="1.0" standalone="no"?>
<!DOCTYPE svg PUBLIC "-//W3C//DTD SVG 1.1//EN" "http://www.w3.org/Graphics/SVG/1.1/DTD/svg11.dtd" >
<svg xmlns="http://www.w3.org/2000/svg" xmlns:xlink="http://www.w3.org/1999/xlink" version="1.1">
<metadata>
Created by FontForge 20161003 at Mon Apr 23 07:56:59 2018
 By www-data
Copyright 1989,1990 URW Unternehmensberatunge and The Compa 
</metadata>
<defs>
<font id="HelveticaExtNormal" horiz-adv-x="320" >
  <font-face 
    font-family="HelveticaExtNormal"
    font-weight="400"
    font-stretch="normal"
    units-per-em="1000"
    panose-1="0 0 0 0 0 0 0 0 0 0"
    ascent="800"
    descent="-200"
    x-height="533"
    cap-height="729"
    bbox="-161 -235 1150 991"
    underline-thickness="50"
    underline-position="-155"
    unicode-range="U+0020-F002"
  />
<missing-glyph 
 />
    <glyph glyph-name=".notdef" 
 />
    <glyph glyph-name="glyph1" horiz-adv-x="0" 
 />
    <glyph glyph-name="glyph2" 
 />
    <glyph glyph-name="space" unicode=" " 
 />
    <glyph glyph-name="space" unicode="&#xa0;" 
 />
    <glyph glyph-name="exclam" unicode="!" 
d="M97 114h126v-114h-126v114v0zM97 729h126l-25 -551h-76l-25 551v0z" />
    <glyph glyph-name="quotedbl" unicode="&#x22;" horiz-adv-x="408" 
d="M148 435h-65l-23 294h111l-23 -294v0zM325 435h-65l-23 294h111l-23 -294v0z" />
    <glyph glyph-name="numbersign" unicode="#" horiz-adv-x="639" 
d="M596 300v-63h-136l-40 -237h-73l41 237h-170l-41 -237h-71l41 237h-134v63h146l25 145h-137v63h147l38 221h72l-38 -221h168l36 221h73l-37 -221h121v-63h-131l-25 -145h125v0zM423 445h-169l-24 -145h168l25 145v0z" />
    <glyph glyph-name="dollar" unicode="$" horiz-adv-x="639" 
d="M136 243q11 -70 39 -111t115 -54v254q-1 0 -1.5 0.5t-1.5 0.5q-85 19 -156.5 60t-71.5 130q0 93 67 138.5t164 53.5v83h63v-83q119 -11 173 -57.5t62 -142.5h-102q-15 67 -43 92.5t-90 30.5v-227q1 0 2.5 -0.5t3.5 -0.5q92 -21 169 -64.5t77 -140.5q0 -49 -25.5 -92.5
t-70.5 -71.5q-31 -20 -66.5 -29.5t-89.5 -11.5v-105h-63v105q-130 11 -191 71t-64 172h101v0zM353 319v-246q70 8 108 40.5t38 82.5q0 47 -31.5 74t-114.5 49v0zM290 639q-58 -7 -92 -36.5t-34 -73.5q0 -38 29 -62.5t97 -44.5v217v0z" />
    <glyph glyph-name="percent" unicode="%" horiz-adv-x="1022" 
d="M612 177q0 97 40 147t116 50q74 0 112.5 -47t38.5 -136q0 -95 -40.5 -146.5t-114.5 -51.5t-113 46.5t-39 137.5v0zM683 179q0 -70 19.5 -103.5t61.5 -33.5q41 0 62.5 37t21.5 109q0 69 -20.5 102.5t-61.5 33.5q-42 0 -62.5 -35.5t-20.5 -109.5v0zM700 715h67l-447 -715
h-66l446 715v0zM102 526q0 96 40 146.5t117 50.5q74 0 112 -47t38 -136q0 -95 -40 -147t-114 -52q-75 0 -114 47t-39 138v0zM174 528q0 -70 19.5 -103.5t60.5 -33.5t62.5 36.5t21.5 109.5q0 69 -19.5 102.5t-60.5 33.5q-43 0 -63.5 -35.5t-20.5 -109.5v0z" />
    <glyph glyph-name="ampersand" unicode="&#x26;" horiz-adv-x="767" 
d="M251 406q-38 44 -57.5 72.5t-25.5 53.5q-3 9 -4 19t-1 20q0 68 56.5 113.5t141.5 45.5q86 0 138 -43t52 -114q0 -33 -11 -60t-37 -52q-18 -18 -43.5 -35.5t-60.5 -37.5l148 -157q4 9 7.5 16.5t6.5 14.5q3 10 6 20.5t5 23.5q2 9 4 20t4 24h103q-1 -5 -2 -10.5t-2 -10.5
q-5 -27 -10.5 -48.5t-13.5 -42.5q-6 -18 -16 -36.5t-23 -41.5l152 -159h-133l-81 84q-52 -46 -109 -71.5t-133 -25.5q-111 0 -179.5 57t-68.5 148q0 78 57 128.5t130 84.5v0zM312 343q-48 -29 -76 -50t-42 -40q-9 -13 -13 -27.5t-4 -31.5q0 -53 41.5 -88.5t105.5 -35.5
q34 0 63 9t58 29q12 8 24 18.5t25 22.5l-182 194v0zM340 450q26 15 44.5 28.5t31.5 27.5q15 15 22 31.5t7 33.5q0 34 -24.5 55t-63.5 21t-63.5 -20.5t-24.5 -52.5q0 -5 0.5 -9.5t1.5 -8.5q3 -20 18.5 -43t50.5 -63v0z" />
    <glyph glyph-name="quotesingle" unicode="'" horiz-adv-x="220" 
d="M143 435h-66l-23 294h112l-23 -294v0z" />
    <glyph glyph-name="parenleft" unicode="(" horiz-adv-x="383" 
d="M286 729h83q-29 -40 -53 -77.5t-43 -74.5q-37 -74 -55.5 -151.5t-18.5 -173.5q0 -91 16.5 -164.5t50.5 -142.5q19 -39 43.5 -79.5t55.5 -83.5l-79 -1q-23 27 -43.5 52.5t-38.5 51.5q-59 83 -88.5 170t-29.5 197q0 101 25 180.5t72 154.5q22 35 47.5 70t55.5 72v0z" />
    <glyph glyph-name="parenright" unicode=")" horiz-adv-x="383" 
d="M97 -219h-83q30 42 55 81t44 77q36 71 53.5 147t17.5 171q0 90 -14.5 159t-45.5 135q-19 42 -45.5 85.5t-60.5 92.5h79q23 -25 43 -50t37 -50q60 -84 90 -172.5t30 -199.5q0 -101 -25 -179.5t-71 -152.5q-22 -35 -48 -70t-56 -73v-1z" />
    <glyph glyph-name="asterisk" unicode="*" horiz-adv-x="447" 
d="M179 612v117h89v-117l126 36l28 -73l-126 -36l78 -94l-72 -45l-78 94l-79 -94l-71 45l78 94l-127 36l28 73l126 -36v0z" />
    <glyph glyph-name="plus" unicode="+" horiz-adv-x="672" 
d="M57 312v77h234v196h88v-196h235v-77h-235v-198h-88v198h-234v0z" />
    <glyph glyph-name="comma" unicode="," 
d="M97 115h126v-104q0 -65 -32.5 -106t-93.5 -51v51q32 11 44 30t15 65h-59v115v0z" />
    <glyph glyph-name="hyphen" unicode="-" horiz-adv-x="383" 
d="M56 318h272v-97h-272v97v0z" />
    <glyph glyph-name="period" unicode="." 
d="M97 113h126v-113h-126v113v0z" />
    <glyph glyph-name="slash" unicode="/" 
d="M210 729h102l-237 -875h-101l236 875v0z" />
    <glyph glyph-name="zero" unicode="0" horiz-adv-x="639" 
d="M41 346q0 188 73 285.5t213 97.5q133 0 202.5 -91t69.5 -265q0 -186 -73 -286t-207 -100q-136 0 -207 91t-71 268v0zM154 350q0 -140 40 -206t125 -66q83 0 125 73t42 217q0 136 -40 202.5t-123 66.5q-85 0 -127 -71.5t-42 -215.5v0z" />
    <glyph glyph-name="one" unicode="1" horiz-adv-x="639" 
d="M103 585q93 4 144 26t73 104h82v-715h-105v509h-194v76v0z" />
    <glyph glyph-name="two" unicode="2" horiz-adv-x="639" 
d="M169 464h-108q1 59 9 92.5t27 62.5q2 3 5 7l6 8q36 47 93 71t134 24q122 0 193 -57.5t71 -156.5q0 -105 -69.5 -157.5t-153.5 -91.5l-9 -4.5l-9 -4.5q-67 -31 -123.5 -67t-74.5 -98h437v-92h-557q2 65 17 110t46 85q31 38 76 66.5t94 53.5q12 6 23.5 12t23.5 12
q67 34 116.5 72.5t49.5 98.5q0 58 -42 92.5t-112 34.5q-89 0 -125 -52t-38 -121v0z" />
    <glyph glyph-name="three" unicode="3" horiz-adv-x="639" 
d="M145 231q7 -73 48 -113t129 -40q75 0 121.5 37.5t46.5 98.5q0 72 -55 95t-120 26q-15 1 -30 1.5t-29 0.5v83h18t18 1q63 1 115.5 19.5t52.5 88.5q0 50 -38 79t-103 29q-85 0 -117.5 -42t-39.5 -108h-106q3 54 10 83.5t24 54.5q3 4 6 8.5t7 8.5q36 43 92.5 65t129.5 22
q113 0 180.5 -53t67.5 -143q0 -58 -24.5 -90.5t-83.5 -52.5q68 -17 103 -60.5t35 -111.5q0 -105 -78 -168t-206 -63q-82 0 -138.5 21.5t-95.5 67.5q-4 5 -7.5 10t-6.5 10q-17 25 -24 55t-10 80h108v0z" />
    <glyph glyph-name="four" unicode="4" horiz-adv-x="639" 
d="M22 280l379 435h110v-455h116v-92h-116v-168h-106v168h-383v112v0zM405 578l-279 -318h279v318v0z" />
    <glyph glyph-name="five" unicode="5" horiz-adv-x="639" 
d="M41 192h110q13 -57 54 -85.5t110 -28.5q78 0 124 41.5t46 109.5t-47.5 110t-124.5 42q-34 0 -62 -7.5t-54 -26.5q-9 -6 -18 -14t-19 -17l-93 6l66 392h422v-92h-341l-37 -196q11 8 22 14t21 11q26 12 53 17t61 5q117 0 190.5 -65t73.5 -169q0 -113 -79 -182.5t-207 -69.5
q-118 0 -189 53.5t-82 151.5v0z" />
    <glyph glyph-name="six" unicode="6" horiz-adv-x="639" 
d="M582 531h-108q-16 58 -46.5 82t-87.5 24q-86 0 -124.5 -53.5t-53.5 -116.5q-5 -22 -8 -42.5t-6 -39.5l3.5 3.5t2.5 3.5q41 42 85.5 60t103.5 18q113 0 183.5 -62.5t70.5 -164.5q0 -115 -74 -185.5t-196 -70.5q-139 0 -211.5 88t-72.5 258q0 194 76.5 295t224.5 101
q65 0 113.5 -19.5t79.5 -60.5l8 -10t7 -9q11 -18 17.5 -38t11.5 -52q0 -2 0.5 -4.5t0.5 -4.5v0zM163 231q0 -67 45.5 -110t116.5 -43t115 43.5t44 110.5q0 65 -43 105.5t-112 40.5q-73 0 -119.5 -41t-46.5 -106v0z" />
    <glyph glyph-name="seven" unicode="7" horiz-adv-x="639" 
d="M46 713h564v-84q-136 -142 -217 -294.5t-122 -334.5h-118q37 179 119 330.5t216 290.5h-442v92v0z" />
    <glyph glyph-name="eight" unicode="8" horiz-adv-x="639" 
d="M174 388q-56 22 -80.5 55.5t-24.5 88.5q0 89 69.5 143t181.5 54q116 0 183 -52.5t67 -141.5q0 -55 -24.5 -90t-77.5 -57q68 -26 99 -68.5t31 -108.5q0 -100 -77 -162t-202 -62q-126 0 -201 60t-75 161q0 65 33 108.5t98 71.5v0zM155 204q0 -58 45 -92t121 -34
q74 0 119 37t45 96t-45 94t-120 35q-73 0 -119 -37.5t-46 -98.5v0zM182 527q0 -48 36 -74.5t102 -26.5q65 0 101.5 28.5t36.5 77.5q0 48 -37.5 76.5t-101.5 28.5t-100.5 -29t-36.5 -81v0z" />
    <glyph glyph-name="nine" unicode="9" horiz-adv-x="639" 
d="M59 180h107q14 -53 46 -77.5t89 -24.5q80 0 118 52t54 115q7 26 11 51t7 46q-30 -48 -78.5 -71.5t-115.5 -23.5q-115 0 -184 63.5t-69 169.5q0 111 74 180t193 69q140 0 212.5 -88t72.5 -259q0 -187 -79 -291t-219 -104q-105 0 -166 49t-73 144v0zM156 489
q0 -69 42 -109.5t113 -40.5q70 0 113.5 39.5t43.5 103.5q0 70 -42.5 112.5t-113.5 42.5t-113.5 -40t-42.5 -108v0z" />
    <glyph glyph-name="colon" unicode=":" 
d="M97 113h126v-113h-126v113v0zM97 533h126v-114h-126v114v0z" />
    <glyph glyph-name="semicolon" unicode=";" 
d="M97 115h126v-104q0 -65 -32.5 -106t-93.5 -51v51q32 11 44 30t15 65h-59v115v0zM97 533h126v-114h-126v114v0z" />
    <glyph glyph-name="less" unicode="&#x3c;" horiz-adv-x="672" 
d="M614 108l-558 215v54l558 216v-77l-445 -166l445 -165v-77v0z" />
    <glyph glyph-name="equal" unicode="=" horiz-adv-x="672" 
d="M57 240v77h557v-77h-557v0zM57 383v77h557v-77h-557v0z" />
    <glyph glyph-name="greater" unicode="&#x3e;" horiz-adv-x="672" 
d="M57 593l558 -216v-54l-558 -215v77l446 165l-446 166v77v0z" />
    <glyph glyph-name="question" unicode="?" horiz-adv-x="639" 
d="M244 114h126v-114h-126v114v0zM361 191h-108q1 33 2 51t5 33q2 5 4 10.5t4 11.5q12 31 38 57t55 50q2 1 4 3t4 3q35 30 63.5 62t28.5 74q0 53 -37 83.5t-100 30.5q-84 0 -114.5 -47.5t-35.5 -110.5h-108q2 116 69.5 178.5t188.5 62.5q115 0 182.5 -52t67.5 -141
q0 -31 -7.5 -56t-25.5 -49q-13 -18 -32 -35.5t-44 -37.5q-22 -17 -38 -31t-27 -27q-20 -23 -28.5 -49.5t-10.5 -73.5v0z" />
    <glyph glyph-name="at" unicode="@" horiz-adv-x="1167" 
d="M871 143h79q-69 -76 -147.5 -116t-194.5 -40q-186 0 -312.5 108t-126.5 267q0 162 125.5 271.5t309.5 109.5q163 0 278.5 -91.5t115.5 -219.5q0 -61 -22 -111.5t-66 -89.5q-20 -18 -47 -34.5t-54 -28.5q-26 -10 -50.5 -16.5t-44.5 -6.5q-33 0 -49 13t-18 40
q-22 -22 -53 -35t-66 -13q-81 0 -132.5 50.5t-51.5 129.5q0 98 68 165t168 67q49 0 81 -17t60 -56l14 60h81l-60 -303q-2 -10 -3 -14.5t-1 -8.5v-0.5v-0.5q0 -9 6 -14t16 -5q11 0 25 5t28 13q18 11 34.5 25.5t28.5 30.5q23 30 34 66t11 74q0 116 -95.5 192t-240.5 76
q-158 0 -262.5 -90.5t-104.5 -229.5t108 -230t272 -91q77 0 140.5 27.5t118.5 71.5v0zM559 233q58 0 95 42.5t38 106.5q0 43 -28.5 70t-73.5 27q-58 0 -99 -40.5t-41 -98.5q0 -47 30 -77t79 -30v0z" />
    <glyph glyph-name="A" unicode="A" horiz-adv-x="767" 
d="M332 729h125l300 -729h-127l-85 217h-321l-89 -217h-125l322 729v0zM390 619l-129 -319h252l-123 319v0z" />
    <glyph glyph-name="B" unicode="B" horiz-adv-x="767" 
d="M100 729h308q79 0 121.5 -8.5t76.5 -31.5q40 -26 61.5 -64.5t21.5 -82.5q0 -55 -27.5 -91.5t-83.5 -56.5q71 -19 109.5 -69.5t38.5 -114.5q0 -54 -23.5 -98t-67.5 -72q-36 -22 -82.5 -31t-133.5 -9h-319v729v0zM217 334v-242h189h1.5h1.5q73 0 134.5 21t61.5 99
q0 76 -57 99t-129 23h-202v0zM217 637v-211h198q80 0 116.5 24.5t36.5 77.5q0 59 -38 84t-125 25h-188v0z" />
    <glyph glyph-name="C" unicode="C" horiz-adv-x="830" 
d="M780 501h-116q-22 77 -82 113.5t-150 36.5q-127 0 -198.5 -76.5t-71.5 -212.5q0 -133 69.5 -208.5t190.5 -75.5q98 0 161.5 50.5t80.5 141.5h116q-18 -124 -111.5 -203.5t-241.5 -79.5q-178 0 -282 99t-104 271q0 157 96.5 271.5t291.5 114.5q151 0 245 -65t106 -177v0z
" />
    <glyph glyph-name="D" unicode="D" horiz-adv-x="830" 
d="M100 729h283q100 0 154.5 -10t98.5 -38q2 -1 3.5 -2t3.5 -2q71 -47 108.5 -124.5t37.5 -180.5q0 -134 -64 -231t-171 -126q-26 -7 -67 -11t-94 -4h-293v729v0zM217 637v-545h168q62 0 103 8t69 24q55 32 83 95.5t28 154.5q0 80 -27 139t-79 90q-31 19 -70.5 26.5
t-109.5 7.5h-165v0z" />
    <glyph glyph-name="E" unicode="E" horiz-adv-x="767" 
d="M100 729h604v-92h-487v-214h450v-92h-450v-239h493v-92h-610v729v0z" />
    <glyph glyph-name="F" unicode="F" horiz-adv-x="703" 
d="M100 729h576v-92h-459v-217h402v-92h-402v-328h-117v729v0z" />
    <glyph glyph-name="G" unicode="G" horiz-adv-x="895" 
d="M785 503h-118q-24 77 -80.5 112.5t-148.5 35.5q-130 0 -203 -76.5t-73 -212.5q0 -133 73.5 -208.5t201.5 -75.5q64 0 116 21.5t88 62.5q4 4 7 8.5t6 8.5q17 24 24.5 52.5t11.5 76.5h-261v83h366v-387h-75l-27 89l-10 -10t-10 -9q-53 -48 -109.5 -67.5t-135.5 -19.5
q-176 0 -281.5 101t-105.5 271q0 176 108.5 280t290.5 104q140 0 229.5 -59.5t115.5 -180.5v0z" />
    <glyph glyph-name="H" unicode="H" horiz-adv-x="830" 
d="M100 729h117v-299h396v299h117v-729h-117v338h-396v-338h-117v729v0z" />
    <glyph glyph-name="I" unicode="I" 
d="M101 729h117v-729h-117v729v0z" />
    <glyph glyph-name="J" unicode="J" horiz-adv-x="575" 
d="M16 243h115v-14.5v-14.5q2 -51 23 -93.5t97 -42.5q64 0 91 35t27 117v499h117v-499q0 -63 -9 -99t-33 -65q-31 -38 -82 -58.5t-112 -20.5q-63 0 -113 19t-80 55q-2 2 -3 4t-3 3q-21 28 -28 63t-7 102v10v0z" />
    <glyph glyph-name="K" unicode="K" horiz-adv-x="767" 
d="M100 729h117v-355l395 355h155l-338 -298l337 -431h-139l-277 365l-133 -112v-253h-117v729v0z" />
    <glyph glyph-name="L" unicode="L" horiz-adv-x="639" 
d="M100 729h117v-637h422v-92h-539v729v0z" />
    <glyph glyph-name="M" unicode="M" horiz-adv-x="958" 
d="M100 729h167l214 -609l211 609h166v-729h-117v585l-207 -585h-111l-206 587v-587h-117v729v0z" />
    <glyph glyph-name="N" unicode="N" horiz-adv-x="830" 
d="M100 729h131l382 -573v573h117v-729h-130l-383 577v-577h-117v729v0z" />
    <glyph glyph-name="O" unicode="O" horiz-adv-x="895" 
d="M41 357q0 179 110 282.5t299 103.5q185 0 294 -100t109 -271q0 -164 -106 -274.5t-304 -110.5q-186 0 -294 99.5t-108 270.5v0zM162 360q0 -130 76.5 -206t209.5 -76q135 0 210 77t75 216q0 131 -75.5 205.5t-209.5 74.5q-135 0 -210.5 -76.5t-75.5 -214.5v0z" />
    <glyph glyph-name="P" unicode="P" horiz-adv-x="767" 
d="M100 729h322q83 0 130.5 -8.5t82.5 -31.5q44 -28 67.5 -71t23.5 -96q0 -74 -38.5 -127.5t-107.5 -74.5q-23 -7 -59.5 -10.5t-82.5 -3.5h-221v-306h-117v729v0zM217 398h183q80 0 142.5 17.5t62.5 102.5q0 76 -55.5 97.5t-128.5 21.5h-204v-239v0z" />
    <glyph glyph-name="Q" unicode="Q" horiz-adv-x="895" 
d="M736 86l108 -76l-61 -63l-122 86q-45 -25 -97 -35.5t-120 -10.5q-191 0 -297.5 106t-106.5 267q0 175 111.5 279t298.5 104q186 0 294.5 -100t108.5 -272q0 -87 -30 -160.5t-87 -124.5v0zM647 148q44 39 65 95t21 129q0 131 -75.5 205t-209.5 74q-135 0 -210.5 -76.5
t-75.5 -213.5q0 -130 76.5 -206.5t208.5 -76.5q26 0 48.5 2.5t43.5 8.5q7 2 14.5 4.5t14.5 5.5l-86 59l60 63l105 -73v0z" />
    <glyph glyph-name="R" unicode="R" horiz-adv-x="830" 
d="M100 729h348q87 0 131 -7t79 -28q2 0 3.5 -1t2.5 -2q42 -26 64 -67.5t22 -94.5q0 -63 -28.5 -103t-90.5 -64q62 -19 83.5 -52.5t21.5 -113.5v-83q0 -31 8.5 -59t29.5 -54h-138q-7 23 -11.5 40.5t-6.5 33.5q-1 7 -1.5 14.5t-0.5 15.5v92q0 79 -48.5 96.5t-125.5 17.5h-225
v-310h-117v729v0zM217 637v-235h219q77 0 135 18.5t58 99.5q0 77 -55 97t-129 20h-228v0z" />
    <glyph glyph-name="S" unicode="S" horiz-adv-x="767" 
d="M51 243h120q0 -5 0.5 -9.5t0.5 -8.5q2 -35 10.5 -62.5t49.5 -50.5q31 -17 70.5 -25.5t89.5 -8.5q93 0 148.5 32t55.5 84q0 29 -23.5 49.5t-78.5 37.5l-255 83q-79 26 -118 67.5t-39 100.5q0 110 92 160t202 51h3.5h2.5q92 0 160 -24.5t105 -72.5q25 -31 31.5 -65t8.5 -70
v-2v-2h-121q0 3 -0.5 6t-0.5 5q-2 28 -5 41.5t-11 24.5q-1 1 -2 3t-3 4q-19 27 -64.5 43.5t-100.5 16.5q-77 0 -127 -31t-50 -79q0 -28 14.5 -44.5t53.5 -30.5q5 -2 10.5 -4t11.5 -4l266 -86q80 -26 119 -67.5t39 -101.5q0 -50 -28.5 -95.5t-80.5 -75.5q-42 -24 -94 -34.5
t-125 -10.5q-166 0 -251.5 59t-85.5 174v23v0z" />
    <glyph glyph-name="T" unicode="T" horiz-adv-x="703" 
d="M16 729h671v-92h-278v-637h-117v637h-276v92v0z" />
    <glyph glyph-name="U" unicode="U" horiz-adv-x="830" 
d="M89 729h117v-454q0 -92 49.5 -144.5t161.5 -52.5q106 0 156.5 54.5t50.5 139.5v457h118v-457q0 -132 -86 -208.5t-241 -76.5q-154 0 -240 70.5t-86 206.5v465v0z" />
    <glyph glyph-name="V" unicode="V" horiz-adv-x="767" 
d="M0 729h128l258 -614l253 614h128l-323 -729h-121l-323 729v0z" />
    <glyph glyph-name="W" unicode="W" horiz-adv-x="1086" 
d="M8 729h124l126 -436q0 -1 0.5 -1.5t0.5 -1.5l2 -6t1 -6q5 -16 10.5 -43.5t17.5 -86.5q17 68 24.5 95.5t13.5 45.5v1.5t1 1.5v0.5v0.5l149 436h120l149 -436q6 -18 11 -36l10 -36q2 -10 4.5 -19t4.5 -18q3 -9 5.5 -18t4.5 -18q14 67 20.5 94.5t11.5 45.5v1.5v1.5
q1 0 1 0.5v1.5l132 436h126l-230 -729h-118l-193 591l-191 -591h-121l-217 729v0z" />
    <glyph glyph-name="X" unicode="X" horiz-adv-x="767" 
d="M8 0l306 372l-282 357h142l216 -277l224 277h137l-291 -353l299 -376h-145l-229 296l-240 -296h-137v0z" />
    <glyph glyph-name="Y" unicode="Y" horiz-adv-x="767" 
d="M0 729h138l251 -346l240 346h138l-322 -441v-288h-117v288l-328 441v0z" />
    <glyph glyph-name="Z" unicode="Z" horiz-adv-x="703" 
d="M26 89l506 548h-470v92h614v-89l-507 -548h507v-92h-650v89v0z" />
    <glyph glyph-name="bracketleft" unicode="[" 
d="M76 729h202v-91h-96v-766h96v-91h-202v948v0z" />
    <glyph glyph-name="backslash" unicode="\" 
d="M109 729l237 -875h-101l-237 875h101v0z" />
    <glyph glyph-name="bracketright" unicode="]" 
d="M244 -219h-203v91h97v766h-97v91h203v-948v0z" />
    <glyph glyph-name="asciicircum" unicode="^" horiz-adv-x="539" 
d="M170 508h-71l137 223h68l136 -223h-71l-100 152l-99 -152v0z" />
    <glyph glyph-name="underscore" unicode="_" horiz-adv-x="639" 
d="M0 -88h639v-77h-639v77v0z" />
    <glyph glyph-name="grave" unicode="`" horiz-adv-x="383" 
d="M221 749l77 -145h-85l-128 145h136v0z" />
    <glyph glyph-name="a" unicode="a" horiz-adv-x="639" 
d="M76 367q2 33 7 53t16 38q3 3 5.5 6.5t5.5 7.5q32 38 84.5 56.5t126.5 18.5q104 0 169 -34.5t65 -134.5v-253q0 -30 9 -42.5t28 -12.5q5 0 12 0.5t19 1.5v-71q-20 -4 -32.5 -6t-23.5 -3h-4.5h-4.5q-46 0 -69 18.5t-28 61.5q-46 -43 -98 -64t-113 -21q-90 0 -144.5 43
t-54.5 114q0 95 81.5 131.5t179.5 48.5q29 4 58 6.5t55 5.5q7 0 14 0.5t13 1.5v6t1 7v6v6q0 55 -30 78t-101 23q-67 0 -99.5 -23t-37.5 -74h-109v0zM451 266q-69 -9 -113.5 -15.5t-72.5 -13.5q-11 -3 -20.5 -5.5t-17.5 -5.5q-31 -11 -47.5 -30.5t-16.5 -44.5
q0 -39 29.5 -60.5t82.5 -21.5q72 0 124 36.5t52 87.5v73v0z" />
    <glyph glyph-name="b" unicode="b" horiz-adv-x="639" 
d="M75 729h106v-264q12 12 24 22.5t24 18.5q30 22 62.5 31.5t71.5 9.5q107 0 171 -74t64 -199q0 -129 -68.5 -208t-178.5 -79q-46 0 -81.5 11.5t-69.5 39.5q-6 5 -12.5 10.5t-12.5 11.5v-59h-100v728v0zM329 464q-72 0 -113.5 -53t-41.5 -145q0 -91 41.5 -144t113.5 -53
t114 53t42 144q0 92 -42 145t-114 53v0z" />
    <glyph glyph-name="c" unicode="c" horiz-adv-x="575" 
d="M469 191h108q-6 -40 -14.5 -65.5t-26.5 -48.5q-2 -2 -3 -3.5t-3 -3.5q-35 -41 -87.5 -62.5t-117.5 -21.5q-135 0 -209.5 71t-74.5 201q0 137 74.5 213t207.5 76q107 0 174.5 -53t79.5 -146h-108q-13 56 -51.5 86t-94.5 30q-79 0 -124 -51t-45 -141q0 -98 44 -151t125 -53
q56 0 92.5 31t53.5 92v0z" />
    <glyph glyph-name="d" unicode="d" horiz-adv-x="639" 
d="M459 479v250h106v-728h-100v68q-18 -19 -34.5 -32.5t-31.5 -22.5q-25 -15 -52 -21t-62 -6q-111 0 -177.5 73.5t-66.5 197.5q0 130 69 209.5t182 79.5q31 0 55.5 -5t47.5 -17q15 -8 30.5 -19t33.5 -27v0zM311 69q75 0 115 51t40 146q0 96 -40 147t-115 51
q-76 0 -116.5 -51t-40.5 -146q0 -96 40.5 -147t116.5 -51v0z" />
    <glyph glyph-name="e" unicode="e" horiz-adv-x="639" 
d="M597 237h-445q5 -82 48.5 -125t124.5 -43q62 0 101 26.5t52 79.5h111q-22 -88 -93 -138t-175 -50q-130 0 -205 74.5t-75 204.5q0 128 78 204t210 76q140 0 204.5 -77t64.5 -189v-1.5v-1.5v-16t-1 -24v0zM490 320q-5 68 -48.5 105.5t-114.5 37.5q-73 0 -116.5 -36
t-54.5 -107h334v0z" />
    <glyph glyph-name="f" unicode="f" 
d="M8 533h77v38q0 54 5.5 78.5t20.5 43.5q0 1 0.5 1.5l0.5 0.5q18 22 50.5 35t67.5 13q15 0 32 -1.5t34 -3.5v-85q-9 3 -15 4.5t-11 1.5q-4 1 -7 1h-7q-35 0 -49.5 -16.5t-14.5 -57.5v-13.5v-12.5q-1 -7 -1 -13.5v-13.5h105v-77h-105v-456h-106v456h-77v77v0z" />
    <glyph glyph-name="g" unicode="g" horiz-adv-x="639" 
d="M459 461v72h105v-452q0 -123 -46 -211t-219 -88q-110 0 -166 39t-69 125l106 -1q12 -43 40.5 -61.5t86.5 -18.5q86 0 120 43.5t35 155.5q-8 -9 -16.5 -17t-16.5 -15q-30 -25 -63 -35t-77 -10q-111 0 -174.5 72t-63.5 198q0 134 65 212t177 78q58 0 101 -21t75 -65v0z
M154 266q0 -90 41.5 -143.5t110.5 -53.5t110.5 53.5t41.5 143.5q0 91 -41.5 144.5t-110.5 53.5t-110.5 -53.5t-41.5 -144.5v0z" />
    <glyph glyph-name="h" unicode="h" horiz-adv-x="639" 
d="M75 729h106v-254q5 4 9.5 8.5t9.5 7.5q37 30 76.5 43t89.5 13q115 0 157 -53.5t42 -143.5v-350h-106v329q0 73 -26.5 104t-90.5 31q-40 0 -72.5 -14.5t-55.5 -41.5q-2 -2 -3.5 -4t-3.5 -4q-16 -21 -21 -46t-5 -71v-283h-106v729v0z" />
    <glyph glyph-name="i" unicode="i" horiz-adv-x="255" 
d="M75 533h106v-533h-106v533v0zM75 729h106v-105h-106v105v0z" />
    <glyph glyph-name="j" unicode="j" horiz-adv-x="255" 
d="M-23 -129q14 -3 21.5 -4.5t14.5 -1.5h3h2q34 0 45.5 17.5t11.5 70.5v580h106v-595q0 -62 -28.5 -109t-113.5 -47q-13 0 -28.5 1t-32.5 3l-1 85v0zM75 729h106v-105h-106v105v0z" />
    <glyph glyph-name="k" unicode="k" horiz-adv-x="575" 
d="M75 729h106v-412l250 216h139l-235 -197l240 -336h-129l-181 272l-84 -69v-203h-106v729v0z" />
    <glyph glyph-name="l" unicode="l" horiz-adv-x="255" 
d="M75 729h106v-729h-106v729v0z" />
    <glyph glyph-name="m" unicode="m" horiz-adv-x="958" 
d="M75 533h106v-65q20 19 38.5 32.5t35.5 23.5q24 12 49 17.5t56 5.5q53 0 88 -17.5t65 -61.5q17 16 33 28.5t32 21.5q27 16 55.5 22.5t63.5 6.5q103 0 144.5 -52t41.5 -132v-363h-106v347q0 60 -25 88.5t-79 28.5h-4h-4q-39 -2 -74 -23.5t-47 -52.5q-1 -2 -1.5 -4t-1.5 -4
q-6 -17 -8 -37t-2 -59v-284h-106v336q0 74 -19.5 101t-73.5 27q-47 0 -85.5 -24t-55.5 -64q-2 -4 -3 -8l-2 -8q-3 -11 -4 -26t-1 -48v-286h-106v533v0z" />
    <glyph glyph-name="n" unicode="n" horiz-adv-x="639" 
d="M75 533h106v-69q15 15 29 27t27 21q29 19 60 27t72 8q65 0 114 -25.5t67 -69.5q2 -6 4 -11.5t4 -10.5q4 -16 5.5 -34.5t1.5 -55.5v-340h-106v323q0 77 -28 109t-94 32q-51 0 -90.5 -23.5t-54.5 -61.5q-2 -5 -3.5 -9.5t-2.5 -8.5q-3 -13 -4 -29.5t-1 -51.5v-280h-106v533
v0z" />
    <glyph glyph-name="o" unicode="o" horiz-adv-x="639" 
d="M41 266q0 132 74.5 206.5t204.5 74.5t204 -74.5t74 -206.5q0 -131 -74 -205t-204 -74t-204.5 74t-74.5 205v0zM154 266q0 -93 43.5 -145t122.5 -52t122 52.5t43 148.5q0 91 -44 142.5t-121 51.5q-79 0 -122.5 -52t-43.5 -146v0z" />
    <glyph glyph-name="p" unicode="p" horiz-adv-x="639" 
d="M75 533h106v-63q11 11 21 20t20 16q30 22 62 31.5t74 9.5q112 0 176 -73t64 -202q0 -131 -66 -208t-179 -77q-54 0 -95 16t-77 53v-261h-106v738v0zM331 464q-72 0 -113 -52.5t-41 -145.5q0 -92 41 -144.5t113 -52.5q73 0 113.5 52.5t40.5 144.5q0 93 -40.5 145.5
t-113.5 52.5v0z" />
    <glyph glyph-name="q" unicode="q" horiz-adv-x="639" 
d="M459 467v66h106v-738h-106v271q-35 -41 -78 -60t-100 -19q-112 0 -176 73t-64 200q0 131 67.5 209t179.5 78q59 0 102.5 -20.5t68.5 -59.5v0zM155 266q0 -89 41 -143t108 -54t107.5 54t40.5 143q0 90 -40.5 144t-107.5 54t-108 -54t-41 -144v0z" />
    <glyph glyph-name="r" unicode="r" horiz-adv-x="383" 
d="M75 533h106v-88q30 52 66.5 77t82.5 25q11 0 22 -1t23 -3v-98q-8 1 -13 1.5t-10 0.5h-4.5h-5.5q-101 0 -130.5 -54.5t-29.5 -128.5v-264h-107v533v0z" />
    <glyph glyph-name="s" unicode="s" horiz-adv-x="575" 
d="M41 174h111q1 -56 33 -80.5t105 -24.5q59 0 95 21t36 55q0 12 -5 20t-17 16q-7 4 -16 8t-21 9l-193 72q-58 22 -83 50t-25 71q0 70 63.5 113t165.5 43q92 0 158.5 -41.5t66.5 -127.5h-107q-1 43 -32 64.5t-91 21.5q-50 0 -83 -18t-33 -46q0 -15 13 -26.5t40 -21.5
l179 -63q12 -4 23 -8.5t21 -8.5q51 -22 70 -47t19 -67q0 -76 -68 -123.5t-178 -47.5q-119 0 -183 48t-64 139v0z" />
    <glyph glyph-name="t" unicode="t" 
d="M16 533h81v131h105v-131h102v-77h-102v-324q0 -39 13.5 -52t53.5 -13h16t19 1v-78q-8 1 -15.5 0.5t-15.5 -1.5q-12 -1 -23.5 -1.5t-22.5 -0.5q-76 0 -103 31.5t-27 120.5v317h-81v77v0z" />
    <glyph glyph-name="u" unicode="u" horiz-adv-x="639" 
d="M75 533h106v-338q0 -70 26.5 -98t90.5 -28q40 0 72 14.5t54 42.5q0 1 0.5 1.5t1.5 0.5q19 24 26 52t7 81v272h106v-532h-98v82q-30 -50 -79.5 -73t-114.5 -23q-116 0 -157 56t-41 146v344v0z" />
    <glyph glyph-name="v" unicode="v" horiz-adv-x="575" 
d="M129 533l160 -421l161 421h117l-229 -533h-107l-223 533h121v0z" />
    <glyph glyph-name="w" unicode="w" horiz-adv-x="830" 
d="M8 533h116l90 -311q2 -7 3.5 -13t3.5 -12q1 -2 1.5 -4.5t1.5 -4.5q3 -13 6.5 -29t8.5 -41q5 24 8.5 39.5t6.5 27.5q1 2 1.5 5t1.5 5q2 6 4 12.5t4 14.5l92 311h118l90 -307q2 -7 4 -13t3 -12q1 -2 1.5 -4.5t1.5 -4.5q3 -12 6 -27.5t9 -41.5q6 26 10 41.5t7 27.5
q0 1 0.5 2.5t0.5 2.5l4 14t4 15l96 307h110l-183 -533h-107l-118 410l-120 -410h-108l-178 533v0z" />
    <glyph glyph-name="x" unicode="x" horiz-adv-x="575" 
d="M221 273l-204 260h134l134 -185l138 185h130l-202 -254l216 -279h-135l-147 203l-149 -203h-128l213 273v0z" />
    <glyph glyph-name="y" unicode="y" horiz-adv-x="575" 
d="M126 533l165 -423l161 423h115l-246 -592q-4 -10 -9 -21t-11 -22q-20 -44 -54 -80t-93 -36q-15 0 -32 1.5t-35 3.5l-10 2l-10 2v86q2 0 3.5 -0.5t3.5 -0.5q13 -4 26.5 -7.5t27.5 -3.5q22 0 37 7t28 28q9 14 18.5 36.5t21.5 54.5l-225 542h118v0z" />
    <glyph glyph-name="z" unicode="z" horiz-adv-x="575" 
d="M41 73l345 377h-318v83h456v-73l-346 -377h356v-83h-493v73v0z" />
    <glyph glyph-name="braceleft" unicode="{" horiz-adv-x="384" 
d="M145 254q57 -13 79 -40t22 -83v-242q0 -41 24.5 -68t73.5 -37q-92 0 -147.5 21t-56.5 116v232q0 44 -22 68t-72 33q50 11 72 35t22 65v252q0 77 55 100t129 23h20q-5 -2 -9.5 -3.5t-8.5 -2.5q-33 -11 -56.5 -29.5t-23.5 -71.5v-253q0 -51 -21.5 -76t-79.5 -39v0z" />
    <glyph glyph-name="bar" unicode="|" horiz-adv-x="299" 
d="M105 729h89v-875h-89v875v0z" />
    <glyph glyph-name="braceright" unicode="}" horiz-adv-x="384" 
d="M239 254q-57 14 -79 39t-22 76v253q0 46 -21 66t-61 35q-4 2 -8 3.5t-8 2.5q79 0 141.5 -16.5t62.5 -106.5v-252q0 -41 22.5 -65t71.5 -35q-50 -9 -72 -33t-22 -68v-233q0 -91 -55.5 -113.5t-148.5 -22.5q49 10 73.5 37t24.5 69v241q0 56 22 83t79 40v0z" />
    <glyph glyph-name="asciitilde" unicode="~" horiz-adv-x="673" 
d="M572 427l43 -28q-7 -10 -14 -20.5t-14 -21.5q-22 -30 -50 -55.5t-70 -25.5q-34 0 -66 11t-62 24q-31 13 -62.5 24t-66.5 11q-25 0 -45 -9t-38 -30q-7 -8 -13.5 -17t-13.5 -20l-43 29q29 46 50.5 72.5t40.5 39.5q15 10 30.5 14t34.5 4q34 0 65 -11t62 -24t62 -24t65 -11
q23 0 39.5 6t32.5 21q8 8 16 18t17 23v0z" />
    <glyph glyph-name="exclamdown" unicode="&#xa1;" horiz-adv-x="383" 
d="M254 -196h-125l25 551h75l25 -551v0zM254 419h-125v114h125v-114v0z" />
    <glyph glyph-name="cent" unicode="&#xa2;" horiz-adv-x="639" 
d="M300 655v74h63v-74q96 -12 153 -61t61 -136h-95q-11 54 -40 82.5t-79 32.5v-394q45 10 71 37t46 85h96q-14 -82 -63 -136t-150 -68v-97h-63v97q-67 8 -107 27.5t-72 59.5q-30 37 -44.5 82t-14.5 102q0 121 61.5 195t176.5 92v0zM300 574q-68 -22 -100 -72t-32 -134
q0 -81 32 -127t100 -64v397v0z" />
    <glyph glyph-name="sterling" unicode="&#xa3;" horiz-adv-x="639" 
d="M580 490h-100q-4 82 -47 124t-121 42q-69 0 -114 -37.5t-45 -95.5q0 -34 14.5 -66t31.5 -62q3 -5 5.5 -9.5t5.5 -9.5h205v-63h-169q4 -14 7 -23.5t4 -18.5q1 -6 1.5 -12t0.5 -14q0 -35 -9 -62.5t-31 -53.5q-9 -10 -20.5 -21t-25.5 -23q12 4 21.5 6.5t18.5 3.5
q10 2 20.5 2.5t24.5 0.5q24 0 47.5 -4.5t46.5 -9.5q4 -1 7.5 -2t7.5 -2q19 -4 38 -7.5t39 -3.5h6h6q26 2 51.5 10.5t46.5 22.5l49 -67q-28 -22 -70.5 -35t-87.5 -13q-31 0 -60.5 6.5t-57.5 14.5q-29 8 -58.5 15t-60.5 7q-34 0 -63 -11.5t-55 -27.5l-53 70q50 35 87.5 77.5
t37.5 100.5q0 7 -0.5 13.5t-1.5 12.5q-2 11 -7 22t-13 26h-103v63h66q-19 27 -30.5 48t-17.5 42q-4 13 -5.5 26t-1.5 28q0 93 73 151t191 58q126 0 197 -65.5t71 -173.5v0z" />
    <glyph glyph-name="currency" unicode="&#xa4;" horiz-adv-x="639" 
d="M199 507q13 8 23.5 13.5t21.5 9.5q15 6 32.5 8t43.5 2t43.5 -2t33.5 -8q10 -4 20.5 -9.5t22.5 -13.5l92 80l60 -52l-92 -80q10 -12 16.5 -22t10.5 -20q7 -13 9 -27.5t2 -35.5t-2 -36t-9 -28q-4 -9 -10.5 -19t-16.5 -22l92 -80l-60 -52l-92 80q-16 -9 -29 -15.5t-26 -9.5
q-14 -5 -29 -6.5t-36 -1.5t-37 1.5t-30 6.5q-12 4 -25 10t-29 15l-92 -80l-60 52l92 80q-9 12 -15.5 22t-11.5 20q-6 13 -8 27.5t-2 35.5t2 35.5t8 27.5q5 10 11.5 20t15.5 22l-92 80l60 52l92 -80v0zM208 349q0 -43 33 -74.5t79 -31.5q50 0 85 31.5t35 74.5q0 41 -35 70
t-83 29q-46 0 -79.5 -29t-34.5 -70v0z" />
    <glyph glyph-name="yen" unicode="&#xa5;" horiz-adv-x="639" 
d="M490 464h121v-63h-159l-41 -74h169v-63h-207v-264h-106v264h-207v63h170l-43 74h-158v63h121l-148 251h114l205 -354l202 354h114l-147 -251v0z" />
    <glyph glyph-name="brokenbar" unicode="&#xa6;" horiz-adv-x="289" 
d="M189 -219h-89v417l89 36v-453v0zM100 729h89v-415l-89 -36v451v0z" />
    <glyph glyph-name="section" unicode="&#xa7;" horiz-adv-x="639" 
d="M163 473q-11 10 -19 19.5t-13 18.5q-10 15 -13.5 30.5t-3.5 35.5q0 74 59 120t154 46q107 0 156.5 -51t51.5 -140h-106q-1 55 -28.5 81.5t-81.5 26.5q-44 0 -71.5 -20.5t-27.5 -53.5q0 -12 4 -22.5t13 -20.5q11 -14 33 -28t57 -31l102 -52q63 -32 112.5 -75t49.5 -113
q0 -52 -26 -89t-88 -70q13 -12 22.5 -22.5t15.5 -20.5q9 -15 12.5 -30t3.5 -35q0 -74 -60 -120.5t-156 -46.5q-59 0 -107.5 19t-77.5 54q-18 22 -26 48.5t-10 71.5h108q3 -58 31 -84t88 -26q45 0 73 21t28 54q0 32 -25.5 53.5t-55.5 37.5q-10 6 -20 11t-19 10l-100 53
q-61 32 -107.5 77t-46.5 112q0 46 21 78t71 61q5 3 11 6l12 6v0zM224 428q-4 -2 -8 -4.5t-7 -5.5q-29 -20 -42 -40.5t-13 -45.5q0 -6 1 -12.5t4 -12.5q7 -21 26 -40.5t45 -34.5l183 -102q11 6 20 12.5t17 12.5q19 16 27 33t8 38q0 18 -7 33.5t-22 31.5q-14 14 -35 28t-50 30
l-147 79v0z" />
    <glyph glyph-name="dieresis" unicode="&#xa8;" horiz-adv-x="383" 
d="M40 749h106v-118h-106v118v0zM343 749v-118h-106v118h106v0z" />
    <glyph glyph-name="copyright" unicode="&#xa9;" horiz-adv-x="848" 
d="M859 365q0 -157 -127 -267t-308 -110q-180 0 -307.5 110t-127.5 267t127.5 267.5t307.5 110.5q181 0 308 -110.5t127 -267.5v0zM796 365q0 135 -109 230t-263 95t-263 -95t-109 -229q0 -135 109 -230t263 -95t263 95t109 229v0zM637 445h-75q-13 45 -44.5 66t-87.5 21
q-73 0 -114 -44t-41 -122q0 -76 39 -120t109 -44q57 0 93 29t45 84h76q-12 -81 -68 -127t-142 -46q-107 0 -168.5 59.5t-61.5 161.5q0 105 63 167t168 62q91 0 146.5 -39t62.5 -108v0z" />
    <glyph glyph-name="ordfeminine" unicode="&#xaa;" horiz-adv-x="425" 
d="M16 296v67h390v-67h-390v0zM52 627q2 59 38 87.5t111 28.5q74 0 109 -25t35 -78v-147q0 -15 3 -20.5t12 -5.5h1q3 0 5.5 0.5t5.5 0.5q2 0 5 0.5t6 0.5v-52q-13 -3 -20.5 -4.5t-14.5 -2.5h-4.5h-4.5q-25 0 -41 10t-21 30q-10 -8 -19 -14t-19 -11q-19 -10 -39.5 -14
t-46.5 -4q-50 0 -83 27.5t-33 69.5q0 59 45.5 79t100.5 27l20 2t19 2q5 1 9.5 1t8.5 1q16 2 22 7t6 18q0 20 -17.5 30t-52.5 10q-39 0 -55 -11.5t-19 -42.5h-72v0zM269 565q-8 -2 -19 -3.5t-24 -2.5q-7 -1 -14 -1.5t-14 -1.5q-31 -3 -57.5 -12.5t-26.5 -34.5
q0 -19 15.5 -29.5t43.5 -10.5q39 0 67.5 19t28.5 44v33v0z" />
    <glyph glyph-name="guillemotleft" unicode="&#xab;" horiz-adv-x="639" 
d="M297 65l-187 162v93l187 160v-113l-107 -91l107 -91v-120v0zM522 65l-186 162v93l186 160v-113l-107 -91l107 -91v-120v0z" />
    <glyph glyph-name="logicalnot" unicode="&#xac;" horiz-adv-x="672" 
d="M57 231v77h558v-308h-88v231h-470v0z" />
    <glyph glyph-name="sfthyphen" unicode="&#xad;" horiz-adv-x="500" 
 />
    <glyph glyph-name="registered" unicode="&#xae;" horiz-adv-x="848" 
d="M859 365q0 -157 -127 -267t-308 -110q-180 0 -307.5 110t-127.5 267t127.5 267.5t307.5 110.5q181 0 308 -110.5t127 -267.5v0zM796 365q0 135 -109 230t-263 95t-263 -95t-109 -229q0 -135 109 -230t263 -95t263 95t109 229v0zM243 584h208q71 0 125 -22t54 -98
q0 -32 -10.5 -52t-38.5 -37q-3 -2 -6.5 -4t-7.5 -4q41 -18 48.5 -46t8.5 -61v-3.5v-3.5q0 -12 0.5 -25t3.5 -26t8.5 -26t14.5 -25h-90q-7 25 -8.5 48t-1.5 43q-1 41 -15 65.5t-90 24.5h-127v-181h-76v433v0zM319 524v-132h124q62 0 86 14.5t24 51.5t-23 51.5t-82 14.5h-129
v0z" />
    <glyph glyph-name="overstore" unicode="&#xaf;" 
 />
    <glyph glyph-name="glyph113" unicode="&#xb0;" horiz-adv-x="466" 
d="M424 578q0 -70 -55.5 -118.5t-136.5 -48.5q-80 0 -135.5 48.5t-55.5 118.5q0 68 56.5 116.5t135.5 48.5q80 0 135.5 -48t55.5 -117v0zM353 577q0 45 -34.5 76.5t-83.5 31.5q-51 0 -86.5 -31.5t-35.5 -76.5q0 -44 35.5 -76t84.5 -32q50 0 85 31.5t35 76.5v0z" />
    <glyph glyph-name="plusminus" unicode="&#xb1;" horiz-adv-x="639" 
d="M41 0v77h557v-77h-557v0zM41 312v77h234v196h88v-196h235v-77h-235v-198h-88v198h-234v0z" />
    <glyph glyph-name="twosuperior" unicode="&#xb2;" horiz-adv-x="413" 
d="M116 559h-76q1 38 5.5 58.5t17.5 37.5q2 2 3.5 4t3.5 4q23 29 60 43t86 14q79 0 124.5 -34.5t45.5 -93.5q0 -62 -43.5 -92t-96.5 -52q-3 -2 -7 -3.5t-8 -2.5q-40 -17 -73.5 -36t-45.5 -51h273v-63h-359q2 44 11 71.5t30 49.5q19 21 47.5 37t58.5 30q7 3 13.5 6t12.5 6
q43 21 75.5 43.5t32.5 56.5q0 32 -25.5 51t-67.5 19q-48 0 -72.5 -25.5t-25.5 -77.5v0z" />
    <glyph glyph-name="threesuperior" unicode="&#xb3;" horiz-adv-x="413" 
d="M100 432q5 -47 30 -68.5t77 -21.5q47 0 74.5 21t27.5 55q0 38 -31.5 52.5t-114.5 15.5v56q75 1 101 13.5t26 46.5q0 28 -22.5 44t-62.5 16q-46 0 -67.5 -21t-25.5 -68h-75q1 33 5.5 51t16.5 34q2 3 4 5.5t5 5.5q23 25 59 38t82 13q74 0 117 -32t43 -85q0 -30 -11.5 -47
t-40.5 -32q-1 0 -2.5 -0.5t-2.5 -1.5q40 -14 58.5 -38.5t18.5 -62.5q0 -61 -50.5 -99t-132.5 -38q-86 0 -132 36.5t-50 111.5h76v0z" />
    <glyph glyph-name="acute" unicode="&#xb4;" horiz-adv-x="383" 
d="M162 749h136l-128 -145h-85l77 145v0z" />
    <glyph glyph-name="mu" unicode="&#xb5;" horiz-adv-x="646" 
d="M75 -188v721h106v-298q0 -42 4.5 -65.5t17.5 -43.5q1 -2 2.5 -4.5t3.5 -4.5q20 -25 50.5 -40.5t64.5 -15.5q70 0 101 42.5t38 93.5q2 11 2.5 22.5t0.5 22.5v291h106v-532h-106v56q-28 -36 -62 -52t-81 -16q-46 0 -80.5 16t-61.5 51v-244h-106v0z" />
    <glyph glyph-name="paragraph" unicode="&#xb6;" horiz-adv-x="618" 
d="M281 -143v484q-103 0 -166.5 47.5t-63.5 141.5q0 62 34 109.5t93 70.5q28 11 61.5 15t87.5 4h264v-67h-30v-805h-102v805h-76v-805h-102v0z" />
    <glyph glyph-name="middot" unicode="&#xb7;" 
 />
    <glyph glyph-name="cedilla" unicode="&#xb8;" horiz-adv-x="383" 
d="M233 0l-52 -67q9 3 15.5 4t12.5 1q3 1 7 1h8q48 0 77.5 -21.5t29.5 -56.5q0 -43 -42 -69.5t-108 -26.5q-13 0 -25.5 1t-24.5 3q-19 2 -37.5 7t-40.5 13l23 40q16 -4 29.5 -7t26.5 -5q9 -1 18.5 -1.5t20.5 -0.5q29 0 46.5 11t17.5 31q0 18 -17.5 29t-44.5 11h-6t-6 -1
q-7 0 -15.5 -2t-20.5 -6l-23 20l76 92h55v0z" />
    <glyph glyph-name="onesuperior" unicode="&#xb9;" horiz-adv-x="413" 
d="M68 637q71 2 97 16.5t39 58.5h57v-420h-72v294h-121v51v0z" />
    <glyph glyph-name="ordmasculine" unicode="&#xba;" horiz-adv-x="420" 
d="M15 296v67h390v-67h-390v0zM39 572q0 80 47 125.5t128 45.5q77 0 122 -45t45 -122t-46.5 -123t-126.5 -46q-79 0 -124 44.5t-45 120.5v0zM116 578q0 -52 24.5 -80.5t68.5 -28.5q46 0 70.5 28t24.5 80q0 51 -24 77.5t-68 26.5q-46 0 -71 -26.5t-25 -76.5v0z" />
    <glyph glyph-name="guillemotright" unicode="&#xbb;" horiz-adv-x="639" 
d="M117 480l187 -162v-93l-187 -160v113l107 91l-107 91v120v0zM343 480l186 -162v-93l-186 -160v113l107 91l-107 91v120v0z" />
    <glyph glyph-name="onequarter" unicode="&#xbc;" horiz-adv-x="1017" 
d="M697 713h71l-446 -713h-71l446 713v0zM618 167l239 253h78v-263h71v-59h-71v-98h-77v98h-240v69v0zM858 326l-161 -169h161v169v0zM68 637q71 2 97 16.5t39 58.5h57v-420h-72v294h-121v51v0z" />
    <glyph glyph-name="onehalf" unicode="&#xbd;" horiz-adv-x="1017" 
d="M697 713h71l-446 -713h-71l446 713v0zM720 267h-76q1 38 5.5 58.5t17.5 37.5q2 2 3.5 4t3.5 4q23 29 59.5 43t86.5 14q79 0 124.5 -34.5t45.5 -93.5q0 -62 -44 -92.5t-96 -51.5q-4 -2 -8.5 -3.5t-8.5 -3.5q-39 -17 -72.5 -35.5t-45.5 -50.5h274v-63h-359q2 44 11 71.5
t29 49.5q19 21 48 37t59 30q6 3 12.5 6t12.5 6q44 21 76.5 43.5t32.5 56.5q0 32 -25.5 51t-67.5 19q-49 0 -73 -25.5t-25 -77.5v0zM68 637q71 2 97 16.5t39 58.5h57v-420h-72v294h-121v51v0z" />
    <glyph glyph-name="threequarters" unicode="&#xbe;" horiz-adv-x="1017" 
d="M697 713h71l-446 -713h-71l446 713v0zM618 167l239 253h78v-263h71v-59h-71v-98h-77v98h-240v69v0zM858 326l-161 -169h161v169v0zM100 432q5 -47 30 -68.5t77 -21.5q47 0 74.5 21t27.5 55q0 38 -31.5 52.5t-114.5 15.5v56q75 1 101 13.5t26 46.5q0 28 -22.5 44t-62.5 16
q-46 0 -67.5 -21t-25.5 -68h-75q1 33 5.5 51t16.5 34q2 3 4 5.5t5 5.5q23 25 59 38t82 13q74 0 117 -32t43 -85q0 -30 -11.5 -47t-40.5 -32q-1 0 -2.5 -0.5t-2.5 -1.5q40 -14 58.5 -38.5t18.5 -62.5q0 -61 -50.5 -99t-132.5 -38q-86 0 -132 36.5t-50 111.5h76v0z" />
    <glyph glyph-name="questiondown" unicode="&#xbf;" horiz-adv-x="703" 
d="M311 342h108q-1 -33 -2.5 -51t-5.5 -33q-1 -5 -3 -10.5t-4 -11.5q-12 -32 -38 -57.5t-55 -49.5q-3 -2 -5.5 -4.5t-5.5 -4.5q-35 -29 -62.5 -60.5t-27.5 -71.5q0 -53 37 -83.5t100 -30.5q85 0 115.5 48t35.5 109h108q-2 -115 -69.5 -177.5t-189.5 -62.5q-115 0 -182 52.5
t-67 141.5q0 29 7.5 53.5t24.5 48.5q13 17 32 35.5t45 38.5q23 18 39.5 32.5t27.5 28.5q19 23 27 49.5t10 70.5v0zM428 419h-127v114h127v-114v0z" />
    <glyph glyph-name="Agrave" unicode="&#xc0;" horiz-adv-x="767" 
d="M332 729h125l300 -729h-127l-85 217h-321l-89 -217h-125l322 729v0zM390 619l-129 -319h252l-123 319v0zM353 954l77 -145h-85l-128 145h136v0z" />
    <glyph glyph-name="Aacute" unicode="&#xc1;" horiz-adv-x="767" 
d="M332 729h125l300 -729h-127l-85 217h-321l-89 -217h-125l322 729v0zM390 619l-129 -319h252l-123 319v0zM458 934h135l-127 -145h-85l77 145v0z" />
    <glyph glyph-name="Acircumflex" unicode="&#xc2;" horiz-adv-x="767" 
d="M332 729h125l300 -729h-127l-85 217h-321l-89 -217h-125l322 729v0zM390 619l-129 -319h252l-123 319v0zM330 954h124l113 -145h-94l-82 72l-83 -72h-92l114 145v0z" />
    <glyph glyph-name="Atilde" unicode="&#xc3;" horiz-adv-x="767" 
d="M332 729h125l300 -729h-127l-85 217h-321l-89 -217h-125l322 729v0zM390 619l-129 -319h252l-123 319v0zM507 938h70q-14 -58 -43.5 -87.5t-73.5 -29.5q-18 0 -35.5 5.5t-34.5 12.5l-34.5 11.5t-32.5 5.5q-12 0 -20.5 -4.5t-16.5 -15.5q-2 -3 -4.5 -6.5t-4.5 -8.5h-71
q16 59 45.5 88.5t73.5 29.5q19 0 36 -5.5t33 -11.5q1 -1 2 -1t2 -1q15 -6 31.5 -11t33.5 -5q8 0 14 2t12 8q4 4 8.5 10t9.5 14v0z" />
    <glyph glyph-name="Adieresis" unicode="&#xc4;" horiz-adv-x="767" 
d="M332 729h125l300 -729h-127l-85 217h-321l-89 -217h-125l322 729v0zM390 619l-129 -319h252l-123 319v0zM239 940h106v-118h-106v118v0zM542 940v-118h-106v118h106v0z" />
    <glyph glyph-name="Aring" unicode="&#xc5;" horiz-adv-x="767" 
d="M332 729h125l300 -729h-127l-85 217h-321l-89 -217h-125l322 729v0zM390 619l-129 -319h252l-123 319v0zM392 991q50 0 85.5 -30.5t35.5 -74.5t-35.5 -75t-85.5 -31q-51 0 -86.5 31t-35.5 75t35.5 74.5t86.5 30.5v0zM392 937q-24 0 -41 -15t-17 -36q0 -22 17 -37t41 -15
q23 0 40.5 15t17.5 37q0 21 -17.5 36t-40.5 15v0z" />
    <glyph glyph-name="AE" unicode="&#xc6;" horiz-adv-x="1150" 
d="M1087 729v-92h-425v-214h388v-92h-388v-239h431v-92h-548v217h-289l-120 -217h-128l420 729h659v0zM545 300v337h-62l-182 -337h244v0z" />
    <glyph glyph-name="Ccedilla" unicode="&#xc7;" horiz-adv-x="830" 
d="M442 -13l-43 -53q10 3 17 4t13 2h6.5h7.5q49 0 78.5 -22t29.5 -57q0 -42 -43 -69t-111 -27q-25 0 -53.5 5t-57.5 14q-4 1 -7.5 2.5t-7.5 2.5l23 41q17 -4 31 -7.5t27 -4.5q10 -1 19.5 -1.5t19.5 -0.5q29 0 46.5 11t17.5 30q0 18 -17.5 29.5t-45.5 11.5h-6t-6 -1
q-7 0 -15.5 -2t-20.5 -6l-23 19l65 80h-4q-160 14 -250.5 111t-90.5 258q0 157 96.5 271.5t291.5 114.5q151 0 245 -64.5t106 -177.5h-116q-22 78 -81 114t-151 36q-127 0 -198.5 -76t-71.5 -213q0 -134 69 -209.5t191 -75.5q98 0 161.5 50.5t80.5 142.5h116
q-16 -116 -107 -198.5t-231 -83.5v-1z" />
    <glyph glyph-name="Egrave" unicode="&#xc8;" horiz-adv-x="767" 
d="M100 729h604v-92h-487v-214h450v-92h-450v-239h493v-92h-610v729v0zM393 954l77 -145h-85l-127 145h135v0z" />
    <glyph glyph-name="Eacute" unicode="&#xc9;" horiz-adv-x="767" 
d="M100 729h604v-92h-487v-214h450v-92h-450v-239h493v-92h-610v729v0zM417 954h136l-128 -145h-85l77 145v0z" />
    <glyph glyph-name="Ecircumflex" unicode="&#xca;" horiz-adv-x="767" 
d="M100 729h604v-92h-487v-214h450v-92h-450v-239h493v-92h-610v729v0zM344 954h124l113 -145h-95l-81 72l-83 -72h-92l114 145v0z" />
    <glyph glyph-name="Edieresis" unicode="&#xcb;" horiz-adv-x="767" 
d="M100 729h604v-92h-487v-214h450v-92h-450v-239h493v-92h-610v729v0zM254 940h106v-118h-106v118v0zM557 940v-118h-106v118h106v0z" />
    <glyph glyph-name="Igrave" unicode="&#xcc;" 
d="M101 729h117v-729h-117v729v0zM137 954l77 -145h-85l-128 145h136v0z" />
    <glyph glyph-name="Iacute" unicode="&#xcd;" 
d="M101 729h117v-729h-117v729v0zM183 954h136l-128 -145h-85l77 145v0z" />
    <glyph glyph-name="Icircumflex" unicode="&#xce;" 
d="M101 729h117v-729h-117v729v0zM99 954h124l113 -145h-95l-81 72l-83 -72h-92l114 145v0z" />
    <glyph glyph-name="Idieresis" unicode="&#xcf;" 
d="M101 729h117v-729h-117v729v0zM9 940h106v-118h-106v118v0zM312 940v-118h-106v118h106v0z" />
    <glyph glyph-name="Eth" unicode="&#xd0;" horiz-adv-x="830" 
d="M100 729h284q102 0 156 -10.5t99 -38.5q1 -1 2 -1.5t2 -1.5q71 -47 108.5 -124.5t37.5 -180.5q0 -134 -63.5 -231t-170.5 -126q-27 -7 -67.5 -11t-93.5 -4h-294v326h-84v92h84v311v0zM217 637v-219h211v-92h-211v-234h169q61 0 102.5 8t69.5 24q53 32 81.5 94.5
t28.5 149.5q0 85 -26 144t-78 90q-31 20 -71.5 27.5t-109.5 7.5h-166v0z" />
    <glyph glyph-name="Ntilde" unicode="&#xd1;" horiz-adv-x="830" 
d="M100 729h131l382 -573v573h117v-729h-130l-383 577v-577h-117v729v0zM531 938h70q-14 -58 -43.5 -87.5t-73.5 -29.5q-18 0 -35.5 5.5t-34.5 12.5l-34.5 11.5t-32.5 5.5q-12 0 -21 -5t-17 -16q-2 -3 -4 -6.5t-4 -7.5h-71q16 59 45.5 88.5t74.5 29.5q18 0 34 -5t31 -11
q1 -1 2 -1h2q16 -7 33 -12.5t36 -5.5q7 0 12.5 2t10.5 7q5 4 9.5 10t10.5 15v0z" />
    <glyph glyph-name="Ograve" unicode="&#xd2;" 
 />
    <glyph glyph-name="Oacute" unicode="&#xd3;" horiz-adv-x="895" 
d="M41 357q0 179 110 282.5t299 103.5q185 0 294 -100t109 -271q0 -164 -106 -274.5t-304 -110.5q-186 0 -294 99.5t-108 270.5v0zM162 360q0 -130 76.5 -206t209.5 -76q135 0 210 77t75 216q0 131 -75.5 205.5t-209.5 74.5q-135 0 -210.5 -76.5t-75.5 -214.5v0zM486 954
h136l-128 -145h-85l77 145v0z" />
    <glyph glyph-name="Ocircumflex" unicode="&#xd4;" horiz-adv-x="895" 
d="M41 357q0 179 110 282.5t299 103.5q185 0 294 -100t109 -271q0 -164 -106 -274.5t-304 -110.5q-186 0 -294 99.5t-108 270.5v0zM162 360q0 -130 76.5 -206t209.5 -76q135 0 210 77t75 216q0 131 -75.5 205.5t-209.5 74.5q-135 0 -210.5 -76.5t-75.5 -214.5v0zM386 954
h125l112 -145h-94l-82 72l-82 -72h-92l113 145v0z" />
    <glyph glyph-name="Otilde" unicode="&#xd5;" horiz-adv-x="895" 
d="M41 357q0 179 110 282.5t299 103.5q185 0 294 -100t109 -271q0 -164 -106 -274.5t-304 -110.5q-186 0 -294 99.5t-108 270.5v0zM162 360q0 -130 76.5 -206t209.5 -76q135 0 210 77t75 216q0 131 -75.5 205.5t-209.5 74.5q-135 0 -210.5 -76.5t-75.5 -214.5v0zM564 938h70
q-15 -58 -44.5 -87.5t-73.5 -29.5q-18 0 -35.5 5.5t-34.5 12.5l-34.5 11.5t-32.5 5.5q-13 0 -22.5 -6t-18.5 -21l-2 -4l-2 -4h-72q16 59 45.5 88.5t74.5 29.5q18 0 34 -5t31 -11q1 -1 2 -1h2q16 -7 33 -12.5t36 -5.5q6 0 11.5 1.5t10.5 5.5t10.5 10.5t11.5 16.5v0z" />
    <glyph glyph-name="Odieresis" unicode="&#xd6;" horiz-adv-x="895" 
d="M41 357q0 179 110 282.5t299 103.5q185 0 294 -100t109 -271q0 -164 -106 -274.5t-304 -110.5q-186 0 -294 99.5t-108 270.5v0zM162 360q0 -130 76.5 -206t209.5 -76q135 0 210 77t75 216q0 131 -75.5 205.5t-209.5 74.5q-135 0 -210.5 -76.5t-75.5 -214.5v0zM297 940
h105v-118h-105v118v0zM599 940v-118h-106v118h106v0z" />
    <glyph glyph-name="multiply" unicode="&#xd7;" horiz-adv-x="639" 
d="M79 504l62 54l179 -155l178 155l62 -54l-178 -155l178 -154l-62 -54l-178 155l-179 -155l-62 54l179 154l-179 155v0z" />
    <glyph glyph-name="Oslash" unicode="&#xd8;" horiz-adv-x="895" 
d="M702 675l101 94l76 -62l-105 -98q37 -45 56.5 -105t19.5 -132q0 -161 -105 -273t-301 -112q-18 0 -37 1t-38 3q-51 6 -99 22t-84 47l-102 -96l-76 60l109 102q-37 49 -55 106.5t-18 127.5q0 175 110 279t296 104q75 0 139 -17t113 -51v0zM688 533l-418 -400
q38 -28 81.5 -41.5t98.5 -13.5q132 0 205.5 77t73.5 214q0 49 -10.5 91t-30.5 73v0zM620 603q-33 24 -77 36t-95 12q-133 0 -207.5 -76t-74.5 -211q0 -47 10 -88t29 -72l415 399v0z" />
    <glyph glyph-name="Ugrave" unicode="&#xd9;" horiz-adv-x="830" 
d="M89 729h117v-454q0 -92 49.5 -144.5t161.5 -52.5q106 0 156.5 54.5t50.5 139.5v457h118v-457q0 -132 -86 -208.5t-241 -76.5q-154 0 -240 70.5t-86 206.5v465v0zM385 954l77 -145h-85l-127 145h135v0z" />
    <glyph glyph-name="Uacute" unicode="&#xda;" horiz-adv-x="830" 
d="M89 729h117v-454q0 -92 49.5 -144.5t161.5 -52.5q106 0 156.5 54.5t50.5 139.5v457h118v-457q0 -132 -86 -208.5t-241 -76.5q-154 0 -240 70.5t-86 206.5v465v0zM446 954h136l-128 -145h-85l77 145v0z" />
    <glyph glyph-name="Ucircumflex" unicode="&#xdb;" horiz-adv-x="830" 
d="M89 729h117v-454q0 -92 49.5 -144.5t161.5 -52.5q106 0 156.5 54.5t50.5 139.5v457h118v-457q0 -132 -86 -208.5t-241 -76.5q-154 0 -240 70.5t-86 206.5v465v0zM354 954h124l113 -145h-94l-82 72l-83 -72h-92l114 145v0z" />
    <glyph glyph-name="Udieresis" unicode="&#xdc;" horiz-adv-x="830" 
d="M89 729h117v-454q0 -92 49.5 -144.5t161.5 -52.5q106 0 156.5 54.5t50.5 139.5v457h118v-457q0 -132 -86 -208.5t-241 -76.5q-154 0 -240 70.5t-86 206.5v465v0zM265 940h105v-118h-105v118v0zM567 940v-118h-106v118h106v0z" />
    <glyph glyph-name="Yacute" unicode="&#xdd;" 
 />
    <glyph glyph-name="Thorn" unicode="&#xde;" horiz-adv-x="770" 
d="M100 729h117v-102h206q83 0 131 -8.5t84 -31.5q44 -28 67.5 -71.5t23.5 -96.5q0 -73 -39 -126.5t-108 -74.5q-23 -7 -59 -10.5t-84 -3.5h-222v-204h-117v729v0zM217 296h184q79 0 143 17.5t64 102.5q0 76 -56.5 97.5t-129.5 21.5h-205v-239v0z" />
    <glyph glyph-name="germandbls" unicode="&#xdf;" horiz-adv-x="703" 
d="M301 68q10 -1 16.5 -1.5t12.5 -1.5h6.5h6.5q87 0 135.5 39.5t48.5 111.5q0 93 -67 120t-159 27v78h12t12 -1h6.5h6.5q54 3 99 30.5t45 79.5q0 54 -37 82t-108 28q-108 0 -132 -48.5t-24 -131.5v-480h-106v474q0 49 1.5 73t5.5 44q0 3 1 6.5t2 7.5q18 67 81 98.5t135 37.5
q10 1 21 1.5t21 0.5q113 0 180 -49t67 -133q0 -53 -35 -95t-90 -54q84 -14 129 -63.5t45 -128.5q0 -54 -23.5 -100t-68.5 -81q-38 -29 -84 -41t-113 -12h-15t-12 1q-5 0 -10 1t-12 2v78v0z" />
    <glyph glyph-name="agrave" unicode="&#xe0;" horiz-adv-x="639" 
d="M76 367q2 33 7 53t16 38q3 3 5.5 6.5t5.5 7.5q32 38 84.5 56.5t126.5 18.5q104 0 169 -34.5t65 -134.5v-253q0 -30 9 -42.5t28 -12.5q5 0 12 0.5t19 1.5v-71q-20 -4 -32.5 -6t-23.5 -3h-4.5h-4.5q-46 0 -69 18.5t-28 61.5q-46 -43 -98 -64t-113 -21q-90 0 -144.5 43
t-54.5 114q0 95 81.5 131.5t179.5 48.5q29 4 58 6.5t55 5.5q7 0 14 0.5t13 1.5v6t1 7v6v6q0 55 -30 78t-101 23q-67 0 -99.5 -23t-37.5 -74h-109v0zM451 266q-69 -9 -113.5 -15.5t-72.5 -13.5q-11 -3 -20.5 -5.5t-17.5 -5.5q-31 -11 -47.5 -30.5t-16.5 -44.5
q0 -39 29.5 -60.5t82.5 -21.5q72 0 124 36.5t52 87.5v73v0zM291 749l77 -145h-85l-128 145h136v0z" />
    <glyph glyph-name="aacute" unicode="&#xe1;" horiz-adv-x="639" 
d="M76 367q2 33 7 53t16 38q3 3 5.5 6.5t5.5 7.5q32 38 84.5 56.5t126.5 18.5q104 0 169 -34.5t65 -134.5v-253q0 -30 9 -42.5t28 -12.5q5 0 12 0.5t19 1.5v-71q-20 -4 -32.5 -6t-23.5 -3h-4.5h-4.5q-46 0 -69 18.5t-28 61.5q-46 -43 -98 -64t-113 -21q-90 0 -144.5 43
t-54.5 114q0 95 81.5 131.5t179.5 48.5q29 4 58 6.5t55 5.5q7 0 14 0.5t13 1.5v6t1 7v6v6q0 55 -30 78t-101 23q-67 0 -99.5 -23t-37.5 -74h-109v0zM451 266q-69 -9 -113.5 -15.5t-72.5 -13.5q-11 -3 -20.5 -5.5t-17.5 -5.5q-31 -11 -47.5 -30.5t-16.5 -44.5
q0 -39 29.5 -60.5t82.5 -21.5q72 0 124 36.5t52 87.5v73v0zM360 749h136l-128 -145h-85l77 145v0z" />
    <glyph glyph-name="acircumflex" unicode="&#xe2;" horiz-adv-x="639" 
d="M76 367q2 33 7 53t16 38q3 3 5.5 6.5t5.5 7.5q32 38 84.5 56.5t126.5 18.5q104 0 169 -34.5t65 -134.5v-253q0 -30 9 -42.5t28 -12.5q5 0 12 0.5t19 1.5v-71q-20 -4 -32.5 -6t-23.5 -3h-4.5h-4.5q-46 0 -69 18.5t-28 61.5q-46 -43 -98 -64t-113 -21q-90 0 -144.5 43
t-54.5 114q0 95 81.5 131.5t179.5 48.5q29 4 58 6.5t55 5.5q7 0 14 0.5t13 1.5v6t1 7v6v6q0 55 -30 78t-101 23q-67 0 -99.5 -23t-37.5 -74h-109v0zM451 266q-69 -9 -113.5 -15.5t-72.5 -13.5q-11 -3 -20.5 -5.5t-17.5 -5.5q-31 -11 -47.5 -30.5t-16.5 -44.5
q0 -39 29.5 -60.5t82.5 -21.5q72 0 124 36.5t52 87.5v73v0zM268 749h124l113 -145h-94l-82 72l-83 -72h-92l114 145v0z" />
    <glyph glyph-name="atilde" unicode="&#xe3;" horiz-adv-x="639" 
d="M76 367q2 33 7 53t16 38q3 3 5.5 6.5t5.5 7.5q32 38 84.5 56.5t126.5 18.5q104 0 169 -34.5t65 -134.5v-253q0 -30 9 -42.5t28 -12.5q5 0 12 0.5t19 1.5v-71q-20 -4 -32.5 -6t-23.5 -3h-4.5h-4.5q-46 0 -69 18.5t-28 61.5q-46 -43 -98 -64t-113 -21q-90 0 -144.5 43
t-54.5 114q0 95 81.5 131.5t179.5 48.5q29 4 58 6.5t55 5.5q7 0 14 0.5t13 1.5v6t1 7v6v6q0 55 -30 78t-101 23q-67 0 -99.5 -23t-37.5 -74h-109v0zM451 266q-69 -9 -113.5 -15.5t-72.5 -13.5q-11 -3 -20.5 -5.5t-17.5 -5.5q-31 -11 -47.5 -30.5t-16.5 -44.5
q0 -39 29.5 -60.5t82.5 -21.5q72 0 124 36.5t52 87.5v73v0zM445 749h70q-14 -58 -43.5 -87.5t-73.5 -29.5q-18 0 -35.5 5.5t-34.5 12.5l-34.5 11.5t-32.5 5.5q-12 0 -20.5 -4.5t-16.5 -15.5q-2 -3 -4.5 -6.5t-4.5 -8.5h-71q15 59 45 88.5t74 29.5q19 0 36 -5.5t33 -11.5
q1 -1 2 -1t2 -1q15 -6 31.5 -11t33.5 -5q8 0 14 2t12 8q4 4 8.5 10t9.5 14v0z" />
    <glyph glyph-name="adieresis" unicode="&#xe4;" horiz-adv-x="639" 
d="M76 367q2 33 7 53t16 38q3 3 5.5 6.5t5.5 7.5q32 38 84.5 56.5t126.5 18.5q104 0 169 -34.5t65 -134.5v-253q0 -30 9 -42.5t28 -12.5q5 0 12 0.5t19 1.5v-71q-20 -4 -32.5 -6t-23.5 -3h-4.5h-4.5q-46 0 -69 18.5t-28 61.5q-46 -43 -98 -64t-113 -21q-90 0 -144.5 43
t-54.5 114q0 95 81.5 131.5t179.5 48.5q29 4 58 6.5t55 5.5q7 0 14 0.5t13 1.5v6t1 7v6v6q0 55 -30 78t-101 23q-67 0 -99.5 -23t-37.5 -74h-109v0zM451 266q-69 -9 -113.5 -15.5t-72.5 -13.5q-11 -3 -20.5 -5.5t-17.5 -5.5q-31 -11 -47.5 -30.5t-16.5 -44.5
q0 -39 29.5 -60.5t82.5 -21.5q72 0 124 36.5t52 87.5v73v0zM178 749h106v-118h-106v118v0zM481 749v-118h-106v118h106v0z" />
    <glyph glyph-name="aring" unicode="&#xe5;" horiz-adv-x="639" 
d="M76 367q2 33 7 53t16 38q3 3 5.5 6.5t5.5 7.5q32 38 84.5 56.5t126.5 18.5q104 0 169 -34.5t65 -134.5v-253q0 -30 9 -42.5t28 -12.5q5 0 12 0.5t19 1.5v-71q-20 -4 -32.5 -6t-23.5 -3h-4.5h-4.5q-46 0 -69 18.5t-28 61.5q-46 -43 -98 -64t-113 -21q-90 0 -144.5 43
t-54.5 114q0 95 81.5 131.5t179.5 48.5q29 4 58 6.5t55 5.5q7 0 14 0.5t13 1.5v6t1 7v6v6q0 55 -30 78t-101 23q-67 0 -99.5 -23t-37.5 -74h-109v0zM451 266q-69 -9 -113.5 -15.5t-72.5 -13.5q-11 -3 -20.5 -5.5t-17.5 -5.5q-31 -11 -47.5 -30.5t-16.5 -44.5
q0 -39 29.5 -60.5t82.5 -21.5q72 0 124 36.5t52 87.5v73v0zM330 798q50 0 85.5 -30.5t35.5 -74.5t-35.5 -75t-85.5 -31q-51 0 -86.5 31t-35.5 75t35.5 74.5t86.5 30.5v0zM330 744q-24 0 -41.5 -15t-17.5 -36q0 -22 17.5 -37t41.5 -15q23 0 40.5 15t17.5 37q0 21 -17.5 36
t-40.5 15v0z" />
    <glyph glyph-name="ae" unicode="&#xe6;" horiz-adv-x="1022" 
d="M521 477q40 34 89.5 51.5t105.5 17.5q123 0 194 -70t71 -191v-17.5t-1 -30.5h-435q5 -81 48.5 -124.5t119.5 -43.5q58 0 95.5 27t52.5 79h111q-17 -83 -91.5 -135.5t-172.5 -52.5q-75 0 -134.5 29t-95.5 84q-28 -44 -83.5 -74t-116.5 -37q-8 -1 -15.5 -1.5t-15.5 -0.5
q-88 0 -142 43.5t-54 114.5q0 91 77 127.5t169 49.5q29 4 57.5 7t53.5 5l18 2t17 2q0 63 -23 94.5t-104 31.5q-63 0 -94.5 -23.5t-36.5 -73.5h-109q2 33 7 53t16 38q3 3 5.5 6.5t5.5 7.5q31 37 83.5 56t125.5 19t123.5 -17.5t78.5 -52.5v0zM442 266q-22 -3 -56 -6t-70 -10
q-57 -10 -105 -32t-48 -67q0 -38 29 -60t78 -22q67 0 119.5 37.5t52.5 86.5v73v0zM873 320q-5 66 -48 104.5t-111 38.5q-69 0 -111 -36.5t-53 -106.5h323v0z" />
    <glyph glyph-name="ccedilla" unicode="&#xe7;" horiz-adv-x="575" 
d="M337 -14l-39 -49q9 3 15.5 4t12.5 1h6h7q47 0 75.5 -20t28.5 -54q0 -41 -41 -66.5t-106 -25.5q-26 0 -56.5 6t-63.5 17l23 39q14 -3 26 -5.5t23 -3.5q10 -1 19.5 -1.5t20.5 -0.5q27 0 43 10t16 28q0 16 -16 26.5t-42 10.5h-6t-6 -1q-6 0 -13 -2t-19 -5l-22 18l62 76
q-115 9 -179.5 80t-64.5 191q0 137 74.5 213t207.5 76q107 0 174.5 -53t79.5 -147h-108q-13 56 -51.5 86.5t-94.5 30.5q-79 0 -124 -51t-45 -141q0 -98 44 -151t125 -53q56 0 92.5 30.5t53.5 91.5h108q-13 -91 -72.5 -144t-167.5 -60v-1z" />
    <glyph glyph-name="egrave" unicode="&#xe8;" horiz-adv-x="639" 
d="M597 237h-445q5 -82 48.5 -125t124.5 -43q62 0 101 26.5t52 79.5h111q-22 -88 -93 -138t-175 -50q-130 0 -205 74.5t-75 204.5q0 128 78 204t210 76q140 0 204.5 -77t64.5 -189v-1.5v-1.5v-16t-1 -24v0zM490 320q-5 68 -48.5 105.5t-114.5 37.5q-73 0 -116.5 -36
t-54.5 -107h334v0zM320 749l77 -145h-85l-128 145h136v0z" />
    <glyph glyph-name="eacute" unicode="&#xe9;" horiz-adv-x="639" 
d="M597 237h-445q5 -82 48.5 -125t124.5 -43q62 0 101 26.5t52 79.5h111q-22 -88 -93 -138t-175 -50q-130 0 -205 74.5t-75 204.5q0 128 78 204t210 76q140 0 204.5 -77t64.5 -189v-1.5v-1.5v-16t-1 -24v0zM490 320q-5 68 -48.5 105.5t-114.5 37.5q-73 0 -116.5 -36
t-54.5 -107h334v0zM367 749h136l-128 -145h-85l77 145v0z" />
    <glyph glyph-name="ecircumflex" unicode="&#xea;" horiz-adv-x="639" 
d="M597 237h-445q5 -82 48.5 -125t124.5 -43q62 0 101 26.5t52 79.5h111q-22 -88 -93 -138t-175 -50q-130 0 -205 74.5t-75 204.5q0 128 78 204t210 76q140 0 204.5 -77t64.5 -189v-1.5v-1.5v-16t-1 -24v0zM490 320q-5 68 -48.5 105.5t-114.5 37.5q-73 0 -116.5 -36
t-54.5 -107h334v0zM259 749h124l113 -145h-95l-81 72l-83 -72h-92l114 145v0z" />
    <glyph glyph-name="edieresis" unicode="&#xeb;" horiz-adv-x="639" 
d="M597 237h-445q5 -82 48.5 -125t124.5 -43q62 0 101 26.5t52 79.5h111q-22 -88 -93 -138t-175 -50q-130 0 -205 74.5t-75 204.5q0 128 78 204t210 76q140 0 204.5 -77t64.5 -189v-1.5v-1.5v-16t-1 -24v0zM490 320q-5 68 -48.5 105.5t-114.5 37.5q-73 0 -116.5 -36
t-54.5 -107h334v0zM169 749h106v-118h-106v118v0zM471 749v-118h-105v118h105v0z" />
    <glyph glyph-name="igrave" unicode="&#xec;" 
d="M107 533h106v-533h-106v533v0zM150 749l77 -145h-86l-127 145h136v0z" />
    <glyph glyph-name="iacute" unicode="&#xed;" 
d="M107 533h106v-533h-106v533v0zM171 749h136l-128 -145h-85l77 145v0z" />
    <glyph glyph-name="icircumflex" unicode="&#xee;" 
d="M107 533h106v-533h-106v533v0zM99 749h124l113 -145h-95l-81 72l-83 -72h-92l114 145v0z" />
    <glyph glyph-name="idieresis" unicode="&#xef;" 
d="M107 533h106v-533h-106v533v0zM9 749h106v-118h-106v118v0zM312 749v-118h-106v118h106v0z" />
    <glyph glyph-name="eth" unicode="&#xf0;" horiz-adv-x="646" 
d="M51 697l43 46q17 -2 36 -5t38 -7q24 -5 48 -11t44 -12l160 86l32 -46l-124 -65q133 -58 205 -164.5t72 -243.5q0 -134 -76 -211t-209 -77q-141 0 -210 80.5t-69 193.5t65.5 199.5t209.5 86.5h7.5t7.5 -1q11 -1 24.5 -4.5t35.5 -10.5q-22 24 -49.5 46t-64.5 43
q-6 3 -12 6.5t-13 7.5l-158 -83l-31 45l123 66q-24 8 -56.5 16.5t-78.5 18.5v0zM154 272q0 -97 43.5 -150t125.5 -53t125.5 52t43.5 149q0 95 -42 144.5t-123 49.5q-82 0 -127.5 -50t-45.5 -142v0z" />
    <glyph glyph-name="ntilde" unicode="&#xf1;" horiz-adv-x="639" 
d="M75 533h106v-69q15 15 29 27t27 21q29 19 60 27t72 8q65 0 114 -25.5t67 -69.5q2 -6 4 -11.5t4 -10.5q4 -16 5.5 -34.5t1.5 -55.5v-340h-106v323q0 77 -28 109t-94 32q-51 0 -90.5 -23.5t-54.5 -61.5q-2 -5 -3.5 -9.5t-2.5 -8.5q-3 -13 -4 -29.5t-1 -51.5v-280h-106v533
v0zM452 749h70q-14 -58 -43.5 -87.5t-73.5 -29.5q-18 0 -35.5 5.5t-34.5 12.5l-34.5 11.5t-32.5 5.5q-12 0 -20.5 -4.5t-16.5 -15.5q-2 -3 -4.5 -6.5t-4.5 -8.5h-71q15 59 44.5 88.5t74.5 29.5q19 0 36 -5.5t33 -11.5q1 -1 2 -1t2 -1q15 -6 31.5 -11t33.5 -5q7 0 13 2t11 7
q5 4 10 10t10 15v0z" />
    <glyph glyph-name="ograve" unicode="&#xf2;" horiz-adv-x="639" 
d="M41 266q0 132 74.5 206.5t204.5 74.5t204 -74.5t74 -206.5q0 -131 -74 -205t-204 -74t-204.5 74t-74.5 205v0zM154 266q0 -93 43.5 -145t122.5 -52t122 52.5t43 148.5q0 91 -44 142.5t-121 51.5q-79 0 -122.5 -52t-43.5 -146v0zM282 749l77 -145h-85l-128 145h136v0z" />
    <glyph glyph-name="oacute" unicode="&#xf3;" horiz-adv-x="639" 
d="M41 266q0 132 74.5 206.5t204.5 74.5t204 -74.5t74 -206.5q0 -131 -74 -205t-204 -74t-204.5 74t-74.5 205v0zM154 266q0 -93 43.5 -145t122.5 -52t122 52.5t43 148.5q0 91 -44 142.5t-121 51.5q-79 0 -122.5 -52t-43.5 -146v0zM359 749h135l-127 -145h-85l77 145v0z" />
    <glyph glyph-name="ocircumflex" unicode="&#xf4;" horiz-adv-x="639" 
d="M41 266q0 132 74.5 206.5t204.5 74.5t204 -74.5t74 -206.5q0 -131 -74 -205t-204 -74t-204.5 74t-74.5 205v0zM154 266q0 -93 43.5 -145t122.5 -52t122 52.5t43 148.5q0 91 -44 142.5t-121 51.5q-79 0 -122.5 -52t-43.5 -146v0zM259 749h124l113 -145h-95l-81 72l-83 -72
h-92l114 145v0z" />
    <glyph glyph-name="otilde" unicode="&#xf5;" horiz-adv-x="639" 
d="M41 266q0 132 74.5 206.5t204.5 74.5t204 -74.5t74 -206.5q0 -131 -74 -205t-204 -74t-204.5 74t-74.5 205v0zM154 266q0 -93 43.5 -145t122.5 -52t122 52.5t43 148.5q0 91 -44 142.5t-121 51.5q-79 0 -122.5 -52t-43.5 -146v0zM436 749h70q-15 -58 -44 -87.5t-73 -29.5
q-18 0 -36 5.5t-35 12.5q-17 6 -33.5 11.5t-32.5 5.5q-12 0 -20.5 -4.5t-16.5 -15.5q-2 -3 -4.5 -6.5t-4.5 -8.5h-71q15 59 44.5 88.5t74.5 29.5q19 0 36 -5.5t33 -11.5q1 -1 2 -1t2 -1q15 -6 31.5 -11t33.5 -5q7 0 13 2t11 7q5 4 10 10t10 15v0z" />
    <glyph glyph-name="odieresis" unicode="&#xf6;" horiz-adv-x="639" 
d="M41 266q0 132 74.5 206.5t204.5 74.5t204 -74.5t74 -206.5q0 -131 -74 -205t-204 -74t-204.5 74t-74.5 205v0zM154 266q0 -93 43.5 -145t122.5 -52t122 52.5t43 148.5q0 91 -44 142.5t-121 51.5q-79 0 -122.5 -52t-43.5 -146v0zM169 749h106v-118h-106v118v0zM471 749
v-118h-105v118h105v0z" />
    <glyph glyph-name="divide" unicode="&#xf7;" horiz-adv-x="639" 
d="M261 253h117v-105h-117v105v0zM41 312v77h557v-77h-557v0zM261 553h117v-106h-117v106v0z" />
    <glyph glyph-name="oslash" unicode="&#xf8;" horiz-adv-x="703" 
d="M522 501l89 89l70 -53l-97 -96q24 -33 36.5 -76.5t12.5 -96.5q0 -129 -78 -205t-209 -76q-52 0 -92.5 11t-78.5 36l-90 -88l-69 53l97 96q-23 33 -34 73t-11 91q0 135 77 211.5t213 76.5q49 0 88.5 -11t75.5 -35v0zM505 366l-258 -265q23 -16 47.5 -24t55.5 -8
q83 0 126.5 52.5t43.5 150.5q0 25 -3.5 46.5t-8.5 39.5l-0.5 1.5t-1.5 3.5l-1 3v0zM452 437q-18 14 -43 20.5t-56 6.5q-82 0 -127 -50.5t-45 -142.5q0 -18 0.5 -31t2.5 -25q2 -10 4.5 -19.5t6.5 -22.5l257 264v0z" />
    <glyph glyph-name="ugrave" unicode="&#xf9;" horiz-adv-x="639" 
d="M75 533h106v-338q0 -70 26.5 -98t90.5 -28q40 0 72 14.5t54 42.5q0 1 0.5 1.5t1.5 0.5q19 24 26 52t7 81v272h106v-532h-98v82q-30 -50 -79.5 -73t-114.5 -23q-116 0 -157 56t-41 146v344v0zM274 749l77 -145h-85l-128 145h136v0z" />
    <glyph glyph-name="uacute" unicode="&#xfa;" horiz-adv-x="639" 
d="M75 533h106v-338q0 -70 26.5 -98t90.5 -28q40 0 72 14.5t54 42.5q0 1 0.5 1.5t1.5 0.5q19 24 26 52t7 81v272h106v-532h-98v82q-30 -50 -79.5 -73t-114.5 -23q-116 0 -157 56t-41 146v344v0zM359 749h135l-127 -145h-85l77 145v0z" />
    <glyph glyph-name="ucircumflex" unicode="&#xfb;" horiz-adv-x="639" 
d="M75 533h106v-338q0 -70 26.5 -98t90.5 -28q40 0 72 14.5t54 42.5q0 1 0.5 1.5t1.5 0.5q19 24 26 52t7 81v272h106v-532h-98v82q-30 -50 -79.5 -73t-114.5 -23q-116 0 -157 56t-41 146v344v0zM259 749h124l113 -145h-95l-81 72l-83 -72h-92l114 145v0z" />
    <glyph glyph-name="udieresis" unicode="&#xfc;" horiz-adv-x="639" 
d="M75 533h106v-338q0 -70 26.5 -98t90.5 -28q40 0 72 14.5t54 42.5q0 1 0.5 1.5t1.5 0.5q19 24 26 52t7 81v272h106v-532h-98v82q-30 -50 -79.5 -73t-114.5 -23q-116 0 -157 56t-41 146v344v0zM169 749h106v-118h-106v118v0zM471 749v-118h-105v118h105v0z" />
    <glyph glyph-name="yacute" unicode="&#xfd;" 
 />
    <glyph glyph-name="thorn" unicode="&#xfe;" horiz-adv-x="643" 
d="M75 729h106v-259q8 8 16 15t15 14q33 26 67.5 37t79.5 11q113 0 177.5 -73.5t64.5 -201.5q0 -131 -67 -208t-180 -77q-54 0 -96 16.5t-77 52.5v-261h-106v934v0zM177 258q0 -90 41 -139.5t114 -49.5q74 0 115.5 53t41.5 148q0 92 -39.5 143t-111.5 51q-79 0 -120 -52.5
t-41 -153.5v0z" />
    <glyph glyph-name="ydieresis" unicode="&#xff;" horiz-adv-x="575" 
d="M126 533l165 -423l161 423h115l-246 -592q-4 -10 -9 -21t-11 -22q-20 -44 -54 -80t-93 -36q-15 0 -32 1.5t-35 3.5l-10 2l-10 2v86q2 0 3.5 -0.5t3.5 -0.5q13 -4 26.5 -7.5t27.5 -3.5q22 0 37 7t28 28q9 14 18.5 36.5t21.5 54.5l-225 542h118v0zM137 749h106v-118h-106
v118v0zM439 749v-118h-105v118h105v0z" />
    <glyph glyph-name="Abreve" unicode="&#x102;" 
 />
    <glyph glyph-name="abreve" unicode="&#x103;" 
 />
    <glyph glyph-name="Aogonek" unicode="&#x104;" 
 />
    <glyph glyph-name="aogonek" unicode="&#x105;" 
 />
    <glyph glyph-name="Cacute" unicode="&#x106;" 
 />
    <glyph glyph-name="cacute" unicode="&#x107;" 
 />
    <glyph glyph-name="Ccaron" unicode="&#x10c;" 
 />
    <glyph glyph-name="ccaron" unicode="&#x10d;" 
 />
    <glyph glyph-name="Dcaron" unicode="&#x10e;" 
 />
    <glyph glyph-name="dcaron" unicode="&#x10f;" 
 />
    <glyph glyph-name="Dslash" unicode="&#x110;" 
 />
    <glyph glyph-name="dslash" unicode="&#x111;" 
 />
    <glyph glyph-name="Eogonek" unicode="&#x118;" 
 />
    <glyph glyph-name="eogonek" unicode="&#x119;" 
 />
    <glyph glyph-name="Ecaron" unicode="&#x11a;" 
 />
    <glyph glyph-name="ecaron" unicode="&#x11b;" 
 />
    <glyph glyph-name="Gbreve" unicode="&#x11e;" 
 />
    <glyph glyph-name="gbreve" unicode="&#x11f;" 
 />
    <glyph glyph-name="Idot" unicode="&#x130;" 
 />
    <glyph glyph-name="dotlessi" unicode="&#x131;" 
d="M107 533h106v-533h-106v533v0z" />
    <glyph glyph-name="Lacute" unicode="&#x139;" 
 />
    <glyph glyph-name="lacute" unicode="&#x13a;" 
 />
    <glyph glyph-name="Lcaron" unicode="&#x13d;" 
 />
    <glyph glyph-name="lcaron" unicode="&#x13e;" 
 />
    <glyph glyph-name="Ldot" unicode="&#x13f;" 
 />
    <glyph glyph-name="ldot" unicode="&#x140;" 
 />
    <glyph glyph-name="Lslash" unicode="&#x141;" horiz-adv-x="639" 
d="M217 470l126 85v-112l-126 -85v-266h422v-92h-539v290l-100 -70v111l100 70v328h117v-259v0z" />
    <glyph glyph-name="lslash" unicode="&#x142;" horiz-adv-x="255" 
d="M181 477l73 50v-111l-73 -50v-366h-106v302l-74 -51v110l74 52v316h106v-252v0z" />
    <glyph glyph-name="Nacute" unicode="&#x143;" 
 />
    <glyph glyph-name="nacute" unicode="&#x144;" 
 />
    <glyph glyph-name="Ncaron" unicode="&#x147;" 
 />
    <glyph glyph-name="ncaron" unicode="&#x148;" 
 />
    <glyph glyph-name="Odblacute" unicode="&#x150;" 
 />
    <glyph glyph-name="odblacute" unicode="&#x151;" 
 />
    <glyph glyph-name="OE" unicode="&#x152;" horiz-adv-x="1150" 
d="M1087 726v-92h-368v-211h331v-92h-331v-239h374v-92h-487v70q-38 -41 -92.5 -62t-122.5 -21q-154 0 -252 104t-98 270q0 170 100.5 276.5t259.5 106.5q68 0 119.5 -19t85.5 -55v56h481v0zM601 551q-41 53 -86.5 77t-105.5 24q-111 0 -179 -78.5t-68 -208.5
q0 -129 68 -208t179 -79q68 0 113.5 30t78.5 77v366v0z" />
    <glyph glyph-name="oe" unicode="&#x153;" horiz-adv-x="1086" 
d="M551 453q41 46 97 69.5t122 23.5q123 0 194 -70t71 -191v-17.5t-1 -30.5h-435q5 -81 48.5 -124.5t119.5 -43.5q59 0 97 27t51 79h111q-22 -88 -92.5 -138t-171.5 -50q-66 0 -120.5 23t-91.5 66l-1 1q-37 -45 -93 -67.5t-127 -22.5q-131 0 -204.5 74t-73.5 206
q0 131 74 205.5t204 74.5q72 0 127.5 -23.5t94.5 -70.5v0zM163 267q0 -94 43.5 -146t122.5 -52q80 0 122.5 52.5t42.5 148.5q0 91 -44 142.5t-121 51.5q-79 0 -122.5 -52t-43.5 -145v0zM927 320q-5 66 -48 104.5t-111 38.5q-69 0 -111 -36.5t-53 -106.5h323v0z" />
    <glyph glyph-name="Racute" unicode="&#x154;" 
 />
    <glyph glyph-name="racute" unicode="&#x155;" 
 />
    <glyph glyph-name="Rcaron" unicode="&#x158;" 
 />
    <glyph glyph-name="rcaron" unicode="&#x159;" 
 />
    <glyph glyph-name="Sacute" unicode="&#x15a;" 
 />
    <glyph glyph-name="sacute" unicode="&#x15b;" 
 />
    <glyph glyph-name="Scedilla" unicode="&#x15e;" 
 />
    <glyph glyph-name="scedilla" unicode="&#x15f;" 
 />
    <glyph glyph-name="Scaron" unicode="&#x160;" horiz-adv-x="767" 
d="M51 243h120q0 -5 0.5 -9.5t0.5 -8.5q2 -35 10.5 -62.5t49.5 -50.5q31 -17 70.5 -25.5t89.5 -8.5q93 0 148.5 32t55.5 84q0 29 -23.5 49.5t-78.5 37.5l-255 83q-79 26 -118 67.5t-39 100.5q0 110 92 160t202 51h3.5h2.5q92 0 160 -24.5t105 -72.5q25 -31 31.5 -65t8.5 -70
v-2v-2h-121q0 3 -0.5 6t-0.5 5q-2 28 -5 41.5t-11 24.5q-1 1 -2 3t-3 4q-19 27 -64.5 43.5t-100.5 16.5q-77 0 -127 -31t-50 -79q0 -28 14.5 -44.5t53.5 -30.5q5 -2 10.5 -4t11.5 -4l266 -86q80 -26 119 -67.5t39 -101.5q0 -50 -28.5 -95.5t-80.5 -75.5q-42 -24 -94 -34.5
t-125 -10.5q-166 0 -251.5 59t-85.5 174v23v0zM445 809h-124l-113 145h94l82 -72l83 72h92l-114 -145v0z" />
    <glyph glyph-name="scaron" unicode="&#x161;" horiz-adv-x="575" 
d="M41 174h111q1 -56 33 -80.5t105 -24.5q59 0 95 21t36 55q0 12 -5 20t-17 16q-7 4 -16 8t-21 9l-193 72q-58 22 -83 50t-25 71q0 70 63.5 113t165.5 43q92 0 158.5 -41.5t66.5 -127.5h-107q-1 43 -32 64.5t-91 21.5q-50 0 -83 -18t-33 -46q0 -15 13 -26.5t40 -21.5
l179 -63q12 -4 23 -8.5t21 -8.5q51 -22 70 -47t19 -67q0 -76 -68 -123.5t-178 -47.5q-119 0 -183 48t-64 139v0zM350 604h-125l-112 145h94l82 -72l82 72h92l-113 -145v0z" />
    <glyph glyph-name="Tcedilla" unicode="&#x162;" 
 />
    <glyph glyph-name="tcedilla" unicode="&#x163;" 
 />
    <glyph glyph-name="Tcaron" unicode="&#x164;" 
 />
    <glyph glyph-name="tcaron" unicode="&#x165;" 
 />
    <glyph glyph-name="Uring" unicode="&#x16e;" 
 />
    <glyph glyph-name="uring" unicode="&#x16f;" 
 />
    <glyph glyph-name="udblacute" unicode="&#x170;" 
 />
    <glyph glyph-name="Udblacute" unicode="&#x171;" 
 />
    <glyph glyph-name="Ydieresis" unicode="&#x178;" horiz-adv-x="767" 
d="M0 729h138l251 -346l240 346h138l-322 -441v-288h-117v288l-328 441v0zM232 940h106v-118h-106v118v0zM535 940v-118h-106v118h106v0z" />
    <glyph glyph-name="Zacute" unicode="&#x179;" 
 />
    <glyph glyph-name="zacute" unicode="&#x17a;" 
 />
    <glyph glyph-name="Zdot" unicode="&#x17b;" 
 />
    <glyph glyph-name="zdot" unicode="&#x17c;" 
 />
    <glyph glyph-name="Zcaron" unicode="&#x17d;" horiz-adv-x="703" 
d="M26 89l506 548h-470v92h614v-89l-507 -548h507v-92h-650v89v0zM429 809h-124l-113 145h94l82 -72l83 72h92l-114 -145v0z" />
    <glyph glyph-name="zcaron" unicode="&#x17e;" horiz-adv-x="575" 
d="M41 73l345 377h-318v83h456v-73l-346 -377h356v-83h-493v73v0zM358 604h-125l-112 145h94l82 -72l82 72h92l-113 -145v0z" />
    <glyph glyph-name="florin" unicode="&#x192;" horiz-adv-x="639" 
d="M523 455l-14 -63h-120l-80 -384q-18 -85 -56 -148.5t-159 -63.5h-6.5h-6.5q-11 0 -23 1t-33 2l15 79q91 1 119.5 23.5t44.5 97.5l1 1v1l81 391h-107l14 63h107l23 114q19 94 67 133t144 39h8h7q10 0 21 -0.5t29 -1.5l-17 -79l-13 -1q-78 -4 -104.5 -19.5t-40.5 -76.5
l-24 -108h123v0z" />
    <glyph glyph-name="hungarumlaut" unicode="&#x2ba;" horiz-adv-x="383" 
d="M86 749h111l-113 -145h-76l78 145v0zM265 749h110l-113 -145h-76l79 145v0z" />
    <glyph glyph-name="tilde" unicode="&#x2c6;" horiz-adv-x="383" 
d="M307 749h70q-14 -58 -43.5 -87.5t-73.5 -29.5q-18 0 -35.5 5.5t-34.5 12.5l-34.5 11.5t-32.5 5.5q-12 0 -20.5 -4.5t-16.5 -15.5q-2 -3 -4.5 -6.5t-4.5 -8.5h-71q15 59 45 88.5t74 29.5q19 0 36 -5.5t33 -11.5q1 -1 2 -1t2 -1q15 -6 31.5 -11t33.5 -5q8 0 14 2t12 8
q4 4 8.5 10t9.5 14v0z" />
    <glyph glyph-name="caron" unicode="&#x2c7;" horiz-adv-x="383" 
d="M253 604h-124l-113 145h94l82 -72l83 72h92l-114 -145v0z" />
    <glyph glyph-name="macron" unicode="&#x2c9;" horiz-adv-x="383" 
d="M35 636v77h313v-77h-313v0z" />
    <glyph glyph-name="breve" unicode="&#x2d8;" horiz-adv-x="383" 
d="M17 749h72q8 -40 33 -58t69 -18q45 0 70 18t33 58h72q-6 -74 -49 -111.5t-122 -37.5q-84 0 -127.5 36.5t-50.5 112.5v0z" />
    <glyph glyph-name="dotaccent" unicode="&#x2d9;" horiz-adv-x="383" 
d="M138 749h107v-118h-107v118v0z" />
    <glyph glyph-name="ring" unicode="&#x2da;" horiz-adv-x="383" 
d="M192 798q50 0 85.5 -30.5t35.5 -74.5t-35.5 -75t-85.5 -31q-51 0 -86.5 31t-35.5 75t35.5 74.5t86.5 30.5v0zM192 744q-24 0 -41.5 -15t-17.5 -36q0 -22 17.5 -37t41.5 -15q23 0 40.5 15t17.5 37q0 21 -17.5 36t-40.5 15v0z" />
    <glyph glyph-name="ogonek" unicode="&#x2db;" horiz-adv-x="383" 
d="M183 0h82q-46 -19 -68.5 -40t-22.5 -43t18 -35t48 -13q8 0 15 0.5t14 1.5t14.5 3t14.5 4v-70q-5 -1 -10 -2.5t-10 -2.5q-15 -4 -30.5 -5.5t-32.5 -1.5q-56 0 -93 27.5t-37 70.5q0 31 24 57.5t74 48.5v0z" />
    <glyph glyph-name="circumflex" unicode="&#x2dc;" horiz-adv-x="383" 
d="M130 749h124l113 -145h-94l-82 72l-83 -72h-92l114 145v0z" />
    <glyph glyph-name="Gamma" unicode="&#x393;" horiz-adv-x="500" 
 />
    <glyph glyph-name="Theta" unicode="&#x398;" horiz-adv-x="500" 
 />
    <glyph glyph-name="summation" unicode="&#x3a3;" horiz-adv-x="500" 
 />
    <glyph glyph-name="Phi" unicode="&#x3a6;" horiz-adv-x="500" 
 />
    <glyph glyph-name="Omega" unicode="&#x3a9;" horiz-adv-x="500" 
 />
    <glyph glyph-name="alpha" unicode="&#x3b1;" horiz-adv-x="500" 
 />
    <glyph glyph-name="delta" unicode="&#x3b4;" horiz-adv-x="500" 
 />
    <glyph glyph-name="epsilon" unicode="&#x3b5;" horiz-adv-x="500" 
 />
    <glyph glyph-name="pi" unicode="&#x3c0;" horiz-adv-x="500" 
 />
    <glyph glyph-name="sigma" unicode="&#x3c3;" 
 />
    <glyph glyph-name="tau" unicode="&#x3c4;" horiz-adv-x="500" 
 />
    <glyph glyph-name="phi" unicode="&#x3c6;" 
 />
    <glyph glyph-name="glyph276" unicode="&#x2013;" horiz-adv-x="639" 
d="M1 312h637v-83h-637v83v0z" />
    <glyph glyph-name="emdash" unicode="&#x2014;" horiz-adv-x="1150" 
d="M0 312h1150v-83h-1150v83v0z" />
    <glyph glyph-name="underscoredbl" unicode="&#x2017;" horiz-adv-x="500" 
 />
    <glyph glyph-name="quoteleft" unicode="&#x2018;" horiz-adv-x="255" 
d="M191 481h-127v104q0 66 33 107.5t94 51.5v-53q-32 -10 -44 -29t-16 -66h60v-115v0z" />
    <glyph glyph-name="quoteright" unicode="&#x2019;" horiz-adv-x="255" 
d="M64 729h127v-105q0 -66 -32.5 -106.5t-94.5 -51.5v52q32 11 44.5 30t15.5 65h-60v116v0z" />
    <glyph glyph-name="quotesinglbase" unicode="&#x201a;" horiz-adv-x="255" 
d="M64 115h127v-104q0 -65 -32.5 -106t-94.5 -51v51q32 11 44.5 30t15.5 65h-60v115v0z" />
    <glyph glyph-name="quotedblleft" unicode="&#x201c;" horiz-adv-x="383" 
d="M163 481h-126v104q0 66 32.5 107.5t93.5 51.5v-53q-31 -10 -43.5 -29t-16.5 -66h60v-115v0zM346 481h-126v104q0 66 32.5 107.5t93.5 51.5v-53q-31 -10 -43.5 -29t-16.5 -66h60v-115v0z" />
    <glyph glyph-name="quotedblright" unicode="&#x201d;" horiz-adv-x="383" 
d="M37 729h126v-105q0 -66 -32.5 -106.5t-93.5 -51.5v52q32 11 44 30t16 65h-60v116v0zM220 729h126v-105q0 -65 -32.5 -106t-93.5 -52v52q32 11 44 29.5t15 65.5h-59v116v0z" />
    <glyph glyph-name="quotedblbase" unicode="&#x201e;" horiz-adv-x="383" 
d="M37 115h126v-104q0 -65 -32.5 -106t-93.5 -51v51q33 11 44.5 30t15.5 65h-60v115v0zM220 115h126v-104q0 -65 -32.5 -106t-93.5 -51v51q32 11 44 30.5t15 64.5h-59v115v0z" />
    <glyph glyph-name="dagger" unicode="&#x2020;" horiz-adv-x="639" 
d="M41 519h222v210h106v-210h229v-83h-229v-588h-106v588h-222v83v0z" />
    <glyph glyph-name="daggerdbl" unicode="&#x2021;" horiz-adv-x="639" 
d="M41 519h222v210h106v-210h229v-83h-229v-286h229v-83h-229v-219h-106v219h-222v83h222v286h-222v83v0z" />
    <glyph glyph-name="glyph287" unicode="&#x2022;" horiz-adv-x="690" 
d="M228 286q0 40 32 68t78 28q47 0 80 -28t33 -68t-33 -68t-80 -28q-46 0 -78 28t-32 68v0z" />
    <glyph glyph-name="ellipsis" unicode="&#x2026;" horiz-adv-x="1150" 
d="M129 113h126v-113h-126v113v0zM512 113h126v-113h-126v113v0zM895 113h126v-113h-126v113v0z" />
    <glyph glyph-name="perthousand" unicode="&#x2030;" horiz-adv-x="1150" 
d="M450 177q0 97 40 147t116 50q74 0 112.5 -47t38.5 -136q0 -95 -40 -146.5t-114 -51.5q-75 0 -114 46.5t-39 137.5v0zM521 179q0 -70 19.5 -103.5t62.5 -33.5q41 0 61.5 37t20.5 109q0 69 -19.5 102.5t-60.5 33.5q-42 0 -63 -35.5t-21 -109.5v0zM825 177q0 97 40 147
t117 50q74 0 112.5 -47t38.5 -136q0 -95 -41 -146.5t-115 -51.5q-75 0 -113.5 46.5t-38.5 137.5v0zM896 179q0 -70 19.5 -103.5t61.5 -33.5t63 37t21 110q0 68 -20 101.5t-61 33.5q-43 0 -63.5 -36t-20.5 -109v0zM577 715h66l-446 -715h-66l446 715v0zM17 526q0 96 40 146.5
t117 50.5q73 0 111.5 -47t38.5 -136q0 -95 -40 -147t-114 -52q-75 0 -114 47t-39 138v0zM89 528q0 -70 19.5 -103.5t60.5 -33.5t62.5 36.5t21.5 109.5q0 69 -19.5 102.5t-60.5 33.5q-43 0 -63.5 -35.5t-20.5 -109.5v0z" />
    <glyph glyph-name="guilsinglleft" unicode="&#x2039;" horiz-adv-x="383" 
d="M266 65l-187 162v93l187 160v-113l-107 -91l107 -91v-120v0z" />
    <glyph glyph-name="guilsinglright" unicode="&#x203a;" horiz-adv-x="383" 
d="M117 480l187 -162v-93l-187 -160v113l107 91l-107 91v120v0z" />
    <glyph glyph-name="exclamdbl" unicode="&#x203c;" horiz-adv-x="500" 
 />
    <glyph glyph-name="nsuperior" unicode="&#x207f;" horiz-adv-x="500" 
 />
    <glyph glyph-name="franc" unicode="&#x20a3;" horiz-adv-x="500" 
 />
    <glyph glyph-name="peseta" unicode="&#x20a7;" horiz-adv-x="500" 
 />
    <glyph glyph-name="trademark" unicode="&#x2122;" horiz-adv-x="1150" 
d="M446 729v-63h-147v-374h-89v374h-148v63h384v0zM1057 729v-437h-81v368l-160 -368h-48l-154 368v-368h-83v437h134l127 -304l135 304h130v0z" />
    <glyph glyph-name="arrowleft" unicode="&#x2190;" 
 />
    <glyph glyph-name="arrowup" unicode="&#x2191;" 
 />
    <glyph glyph-name="arrowright" unicode="&#x2192;" horiz-adv-x="500" 
 />
    <glyph glyph-name="arrowdown" unicode="&#x2193;" 
 />
    <glyph glyph-name="arrowboth" unicode="&#x2194;" 
 />
    <glyph glyph-name="arrowupdn" unicode="&#x2195;" 
 />
    <glyph glyph-name="arrowupdnbase" unicode="&#x21a8;" 
 />
    <glyph glyph-name="partialdiff" unicode="&#x2202;" horiz-adv-x="500" 
 />
    <glyph glyph-name="Delta" unicode="&#x2206;" horiz-adv-x="500" 
 />
    <glyph glyph-name="product" unicode="&#x220f;" 
 />
    <glyph glyph-name="minus" unicode="&#x2212;" horiz-adv-x="672" 
d="M57 312v77h557v-77h-557v0z" />
    <glyph glyph-name="fraction" unicode="&#x2215;" horiz-adv-x="192" 
d="M285 713h72l-447 -713h-71l446 713v0z" />
    <glyph glyph-name="periodcentered" unicode="&#x2219;" 
d="M97 326h126v-113h-126v113v0z" />
    <glyph glyph-name="radical" unicode="&#x221a;" horiz-adv-x="500" 
 />
    <glyph glyph-name="infinity" unicode="&#x221e;" 
 />
    <glyph glyph-name="orthogonal" unicode="&#x221f;" 
 />
    <glyph glyph-name="intersection" unicode="&#x2229;" 
 />
    <glyph glyph-name="integral" unicode="&#x222b;" 
 />
    <glyph glyph-name="approxequal" unicode="&#x2248;" horiz-adv-x="500" 
 />
    <glyph glyph-name="notequal" unicode="&#x2260;" horiz-adv-x="500" 
 />
    <glyph glyph-name="equivalence" unicode="&#x2261;" 
 />
    <glyph glyph-name="lessequal" unicode="&#x2264;" horiz-adv-x="500" 
 />
    <glyph glyph-name="greaterequal" unicode="&#x2265;" horiz-adv-x="500" 
 />
    <glyph glyph-name="house" unicode="&#x2302;" 
 />
    <glyph glyph-name="revlogicalnot" unicode="&#x2310;" 
 />
    <glyph glyph-name="integraltp" unicode="&#x2320;" 
 />
    <glyph glyph-name="integralbt" unicode="&#x2321;" 
 />
    <glyph glyph-name="2500" unicode="&#x2500;" 
 />
    <glyph glyph-name="2502" unicode="&#x2502;" 
 />
    <glyph glyph-name="250c" unicode="&#x250c;" 
 />
    <glyph glyph-name="2510" unicode="&#x2510;" 
 />
    <glyph glyph-name="2514" unicode="&#x2514;" 
 />
    <glyph glyph-name="2518" unicode="&#x2518;" 
 />
    <glyph glyph-name="251c" unicode="&#x251c;" 
 />
    <glyph glyph-name="2524" unicode="&#x2524;" 
 />
    <glyph glyph-name="252c" unicode="&#x252c;" 
 />
    <glyph glyph-name="2534" unicode="&#x2534;" 
 />
    <glyph glyph-name="253c" unicode="&#x253c;" 
 />
    <glyph glyph-name="2550" unicode="&#x2550;" 
 />
    <glyph glyph-name="2551" unicode="&#x2551;" 
 />
    <glyph glyph-name="2552" unicode="&#x2552;" 
 />
    <glyph glyph-name="2553" unicode="&#x2553;" 
 />
    <glyph glyph-name="2554" unicode="&#x2554;" 
 />
    <glyph glyph-name="2555" unicode="&#x2555;" 
 />
    <glyph glyph-name="2556" unicode="&#x2556;" 
 />
    <glyph glyph-name="2557" unicode="&#x2557;" 
 />
    <glyph glyph-name="2558" unicode="&#x2558;" 
 />
    <glyph glyph-name="2559" unicode="&#x2559;" 
 />
    <glyph glyph-name="255a" unicode="&#x255a;" 
 />
    <glyph glyph-name="255b" unicode="&#x255b;" 
 />
    <glyph glyph-name="255c" unicode="&#x255c;" 
 />
    <glyph glyph-name="255d" unicode="&#x255d;" 
 />
    <glyph glyph-name="255e" unicode="&#x255e;" 
 />
    <glyph glyph-name="255f" unicode="&#x255f;" 
 />
    <glyph glyph-name="2560" unicode="&#x2560;" 
 />
    <glyph glyph-name="2561" unicode="&#x2561;" 
 />
    <glyph glyph-name="2562" unicode="&#x2562;" 
 />
    <glyph glyph-name="2563" unicode="&#x2563;" 
 />
    <glyph glyph-name="2564" unicode="&#x2564;" 
 />
    <glyph glyph-name="2565" unicode="&#x2565;" 
 />
    <glyph glyph-name="2566" unicode="&#x2566;" 
 />
    <glyph glyph-name="2567" unicode="&#x2567;" 
 />
    <glyph glyph-name="2568" unicode="&#x2568;" 
 />
    <glyph glyph-name="2569" unicode="&#x2569;" 
 />
    <glyph glyph-name="256a" unicode="&#x256a;" 
 />
    <glyph glyph-name="256b" unicode="&#x256b;" 
 />
    <glyph glyph-name="256c" unicode="&#x256c;" 
 />
    <glyph glyph-name="upblock" unicode="&#x2580;" 
 />
    <glyph glyph-name="dnblock" unicode="&#x2584;" 
 />
    <glyph glyph-name="block" unicode="&#x2588;" 
 />
    <glyph glyph-name="lfblock" unicode="&#x258c;" 
 />
    <glyph glyph-name="rtblock" unicode="&#x2590;" 
 />
    <glyph glyph-name="ltshade" unicode="&#x2591;" 
 />
    <glyph glyph-name="shade" unicode="&#x2592;" 
 />
    <glyph glyph-name="dkshade" unicode="&#x2593;" 
 />
    <glyph glyph-name="filledbox" unicode="&#x25a0;" horiz-adv-x="500" 
 />
    <glyph glyph-name="filledrect" unicode="&#x25ac;" 
 />
    <glyph glyph-name="triagup" unicode="&#x25b2;" 
 />
    <glyph glyph-name="triagrt" unicode="&#x25ba;" 
 />
    <glyph glyph-name="triagdn" unicode="&#x25bc;" 
 />
    <glyph glyph-name="triaglf" unicode="&#x25c4;" 
 />
    <glyph glyph-name="lozenge" unicode="&#x25ca;" horiz-adv-x="500" 
 />
    <glyph glyph-name="circle" unicode="&#x25cb;" 
 />
    <glyph glyph-name="invbullet" unicode="&#x25d8;" 
 />
    <glyph glyph-name="invcircle" unicode="&#x25d9;" 
 />
    <glyph glyph-name="smileface" unicode="&#x263a;" 
 />
    <glyph glyph-name="invsmileface" unicode="&#x263b;" 
 />
    <glyph glyph-name="sun" unicode="&#x263c;" 
 />
    <glyph glyph-name="female" unicode="&#x2640;" 
 />
    <glyph glyph-name="male" unicode="&#x2642;" 
 />
    <glyph glyph-name="spade" unicode="&#x2660;" 
 />
    <glyph glyph-name="club" unicode="&#x2663;" 
 />
    <glyph glyph-name="heart" unicode="&#x2665;" 
 />
    <glyph glyph-name="diamond" unicode="&#x2666;" 
 />
    <glyph glyph-name="musicalnote" unicode="&#x266a;" 
 />
    <glyph glyph-name="musicalnotedbl" unicode="&#x266b;" 
 />
    <glyph glyph-name="apple" unicode="&#xf000;" 
 />
    <glyph glyph-name="fi" unicode="&#xf001;" horiz-adv-x="575" 
d="M16 533h85v38q0 54 5.5 78.5t20.5 43.5q0 1 0.5 1.5l0.5 0.5q18 22 50.5 35t67.5 13q15 0 32 -1.5t34 -3.5v-85q-9 3 -15.5 4.5t-11.5 2.5h-6h-6q-36 0 -50.5 -16.5t-14.5 -57.5v-13.5v-12.5q-1 -7 -1 -13.5v-13.5h105v-77h-105v-456h-106v456h-85v77v0zM394 533h106
v-533h-106v533v0zM394 729h106v-105h-106v105v0z" />
    <glyph glyph-name="fl" unicode="&#xf002;" horiz-adv-x="575" 
d="M16 533h85v39q0 53 5 77t20 43q0 1 0.5 1.5l1.5 1.5q18 22 50.5 35t67.5 13q16 0 33 -1.5t34 -3.5v-84q-9 2 -14.5 3.5t-10.5 1.5q-3 1 -6.5 1h-7.5q-37 0 -51.5 -16t-15.5 -57v-54h106v-77h-106v-456h-106v456h-85v77v0zM394 729h106v-729h-106v729v0z" />
    <glyph glyph-name="degree" horiz-adv-x="466" 
d="M424 578q0 -70 -55.5 -118.5t-136.5 -48.5q-80 0 -135.5 48.5t-55.5 118.5q0 68 56.5 116.5t135.5 48.5q80 0 135.5 -48t55.5 -117v0zM353 577q0 45 -34.5 76.5t-83.5 31.5q-51 0 -86.5 -31.5t-35.5 -76.5q0 -44 35.5 -76t84.5 -32q50 0 85 31.5t35 76.5v0z" />
    <glyph glyph-name="bullet" horiz-adv-x="690" 
d="M228 286q0 40 32 68t78 28q47 0 80 -28t33 -68t-33 -68t-80 -28q-46 0 -78 28t-32 68v0z" />
    <glyph glyph-name="endash" horiz-adv-x="639" 
d="M1 312h637v-83h-637v83v0z" />
    </font>
</defs>
</svg>
